<?xml version="1.0" encoding="UTF-8" standalone="no"?>
<svg
   width="432pt"
   height="273.6pt"
   viewBox="0 0 432 273.6"
   version="1.1"
   id="svg151"
   sodipodi:docname="fr-en.attentions.svg"
   inkscape:version="1.3 (0e150ed, 2023-07-21)"
   xmlns:inkscape="http://www.inkscape.org/namespaces/inkscape"
   xmlns:sodipodi="http://sodipodi.sourceforge.net/DTD/sodipodi-0.dtd"
   xmlns:xlink="http://www.w3.org/1999/xlink"
   xmlns="http://www.w3.org/2000/svg"
   xmlns:svg="http://www.w3.org/2000/svg"
   xmlns:rdf="http://www.w3.org/1999/02/22-rdf-syntax-ns#"
   xmlns:cc="http://creativecommons.org/ns#"
   xmlns:dc="http://purl.org/dc/elements/1.1/">
  <sodipodi:namedview
     id="namedview151"
     pagecolor="#ffffff"
     bordercolor="#000000"
     borderopacity="0.25"
     inkscape:showpageshadow="2"
     inkscape:pageopacity="0.0"
     inkscape:pagecheckerboard="0"
     inkscape:deskcolor="#d1d1d1"
     inkscape:document-units="pt"
     inkscape:zoom="0.64692981"
     inkscape:cx="288.28475"
     inkscape:cy="182.4"
     inkscape:window-width="1712"
     inkscape:window-height="1041"
     inkscape:window-x="0"
     inkscape:window-y="43"
     inkscape:window-maximized="1"
     inkscape:current-layer="svg151" />
  <metadata
     id="metadata1">
    <rdf:RDF>
      <cc:Work>
        <dc:type
           rdf:resource="http://purl.org/dc/dcmitype/StillImage" />
        <dc:date>2024-03-25T13:04:34.323557</dc:date>
        <dc:format>image/svg+xml</dc:format>
        <dc:creator>
          <cc:Agent>
            <dc:title>Matplotlib v3.5.3, https://matplotlib.org/</dc:title>
          </cc:Agent>
        </dc:creator>
      </cc:Work>
    </rdf:RDF>
  </metadata>
  <defs
     id="defs1">
    <style
       type="text/css"
       id="style1">*{stroke-linejoin: round; stroke-linecap: butt}</style>
    <filter
       style="color-interpolation-filters:sRGB;"
       inkscape:label="Invert"
       id="filter152"
       x="0"
       y="0"
       width="1"
       height="1">
      <feColorMatrix
         values="-1 0 0 0 1 0 -1 0 0 1 0 0 -1 0 1 -0.21 -0.72 -0.07 2 0 "
         result="color2"
         id="feColorMatrix152" />
    </filter>
  </defs>
  <g
     id="figure_1"
     style="filter:url(#filter152)">
    <g
       id="patch_1">
      <path
         d="M 0 273.6  L 432 273.6  L 432 0  L 0 0  z "
         style="fill: #ffffff"
         id="path1" />
    </g>
    <g
       id="axes_1">
      <g
         id="patch_2">
        <path
           d="M 54 243.504  L 388.8 243.504  L 388.8 32.832  L 54 32.832  z "
           style="fill: #ffffff"
           id="path2" />
      </g>
      <g
         id="patch_3">
        <path
           d="M 69.218182 243.504  L 90.208777 243.504  L 90.208777 216.019068  L 69.218182 216.019068  z "
           clip-path="url(#p64d18d3916)"
           style="fill: #00ff00"
           id="path3" />
      </g>
      <g
         id="patch_4">
        <path
           d="M 121.694671 243.504  L 142.685266 243.504  L 142.685266 187.15989  L 121.694671 187.15989  z "
           clip-path="url(#p64d18d3916)"
           style="fill: #00ff00"
           id="path4" />
      </g>
      <g
         id="patch_5">
        <path
           d="M 174.17116 243.504  L 195.161755 243.504  L 195.161755 160.362082  L 174.17116 160.362082  z "
           clip-path="url(#p64d18d3916)"
           style="fill: #00ff00"
           id="path5" />
      </g>
      <g
         id="patch_6">
        <path
           d="M 226.647649 243.504  L 247.638245 243.504  L 247.638245 110.202082  L 226.647649 110.202082  z "
           clip-path="url(#p64d18d3916)"
           style="fill: #00ff00"
           id="path6" />
      </g>
      <g
         id="patch_7">
        <path
           d="M 279.124138 243.504  L 300.114734 243.504  L 300.114734 61.416329  L 279.124138 61.416329  z "
           clip-path="url(#p64d18d3916)"
           style="fill: #00ff00"
           id="path7" />
      </g>
      <g
         id="patch_8">
        <path
           d="M 331.600627 243.504  L 352.591223 243.504  L 352.591223 42.864  L 331.600627 42.864  z "
           clip-path="url(#p64d18d3916)"
           style="fill: #00ff00"
           id="path8" />
      </g>
      <g
         id="patch_9">
        <path
           d="M 90.208777 243.504  L 111.199373 243.504  L 111.199373 238.694137  L 90.208777 238.694137  z "
           clip-path="url(#p64d18d3916)"
           style="fill: #ff00ff"
           id="path9" />
      </g>
      <g
         id="patch_10">
        <path
           d="M 142.685266 243.504  L 163.675862 243.504  L 163.675862 231.135781  L 142.685266 231.135781  z "
           clip-path="url(#p64d18d3916)"
           style="fill: #ff00ff"
           id="path10" />
      </g>
      <g
         id="patch_11">
        <path
           d="M 195.161755 243.504  L 216.152351 243.504  L 216.152351 210.522082  L 195.161755 210.522082  z "
           clip-path="url(#p64d18d3916)"
           style="fill: #ff00ff"
           id="path11" />
      </g>
      <g
         id="patch_12">
        <path
           d="M 247.638245 243.504  L 268.62884 243.504  L 268.62884 185.785644  L 247.638245 185.785644  z "
           clip-path="url(#p64d18d3916)"
           style="fill: #ff00ff"
           id="path12" />
      </g>
      <g
         id="patch_13">
        <path
           d="M 300.114734 243.504  L 321.105329 243.504  L 321.105329 181.662904  L 300.114734 181.662904  z "
           clip-path="url(#p64d18d3916)"
           style="fill: #ff00ff"
           id="path13" />
      </g>
      <g
         id="patch_14">
        <path
           d="M 352.591223 243.504  L 373.581818 243.504  L 373.581818 173.417425  L 352.591223 173.417425  z "
           clip-path="url(#p64d18d3916)"
           style="fill: #ff00ff"
           id="path14" />
      </g>
      <g
         id="matplotlib.axis_1">
        <g
           id="xtick_1">
          <g
             id="line2d_1">
            <defs
               id="defs14">
              <path
                 id="mf338e04167"
                 d="M 0 0  L 0 3.5  "
                 style="stroke: #000000; stroke-width: 0.8" />
            </defs>
            <g
               id="g14">
              <use
                 xlink:href="#mf338e04167"
                 x="90.208777"
                 y="243.504"
                 style="stroke: #000000; stroke-width: 0.8"
                 id="use14" />
            </g>
          </g>
          <g
             id="text_1">
            <!-- 16 -->
            <g
               transform="translate(83.846277 258.102437)scale(0.1 -0.1)"
               id="g16">
              <defs
                 id="defs15">
                <path
                   id="DejaVuSans-31"
                   d="M 794 531  L 1825 531  L 1825 4091  L 703 3866  L 703 4441  L 1819 4666  L 2450 4666  L 2450 531  L 3481 531  L 3481 0  L 794 0  L 794 531  z "
                   transform="scale(0.015625)" />
                <path
                   id="DejaVuSans-36"
                   d="M 2113 2584  Q 1688 2584 1439 2293  Q 1191 2003 1191 1497  Q 1191 994 1439 701  Q 1688 409 2113 409  Q 2538 409 2786 701  Q 3034 994 3034 1497  Q 3034 2003 2786 2293  Q 2538 2584 2113 2584  z M 3366 4563  L 3366 3988  Q 3128 4100 2886 4159  Q 2644 4219 2406 4219  Q 1781 4219 1451 3797  Q 1122 3375 1075 2522  Q 1259 2794 1537 2939  Q 1816 3084 2150 3084  Q 2853 3084 3261 2657  Q 3669 2231 3669 1497  Q 3669 778 3244 343  Q 2819 -91 2113 -91  Q 1303 -91 875 529  Q 447 1150 447 2328  Q 447 3434 972 4092  Q 1497 4750 2381 4750  Q 2619 4750 2861 4703  Q 3103 4656 3366 4563  z "
                   transform="scale(0.015625)" />
              </defs>
              <use
                 xlink:href="#DejaVuSans-31"
                 id="use15" />
              <use
                 xlink:href="#DejaVuSans-36"
                 x="63.623047"
                 id="use16" />
            </g>
          </g>
        </g>
        <g
           id="xtick_2">
          <g
             id="line2d_2">
            <g
               id="g17">
              <use
                 xlink:href="#mf338e04167"
                 x="142.685266"
                 y="243.504"
                 style="stroke: #000000; stroke-width: 0.8"
                 id="use17" />
            </g>
          </g>
          <g
             id="text_2">
            <!-- 32 -->
            <g
               transform="translate(136.322766 258.102437)scale(0.1 -0.1)"
               id="g19">
              <defs
                 id="defs17">
                <path
                   id="DejaVuSans-33"
                   d="M 2597 2516  Q 3050 2419 3304 2112  Q 3559 1806 3559 1356  Q 3559 666 3084 287  Q 2609 -91 1734 -91  Q 1441 -91 1130 -33  Q 819 25 488 141  L 488 750  Q 750 597 1062 519  Q 1375 441 1716 441  Q 2309 441 2620 675  Q 2931 909 2931 1356  Q 2931 1769 2642 2001  Q 2353 2234 1838 2234  L 1294 2234  L 1294 2753  L 1863 2753  Q 2328 2753 2575 2939  Q 2822 3125 2822 3475  Q 2822 3834 2567 4026  Q 2313 4219 1838 4219  Q 1578 4219 1281 4162  Q 984 4106 628 3988  L 628 4550  Q 988 4650 1302 4700  Q 1616 4750 1894 4750  Q 2613 4750 3031 4423  Q 3450 4097 3450 3541  Q 3450 3153 3228 2886  Q 3006 2619 2597 2516  z "
                   transform="scale(0.015625)" />
                <path
                   id="DejaVuSans-32"
                   d="M 1228 531  L 3431 531  L 3431 0  L 469 0  L 469 531  Q 828 903 1448 1529  Q 2069 2156 2228 2338  Q 2531 2678 2651 2914  Q 2772 3150 2772 3378  Q 2772 3750 2511 3984  Q 2250 4219 1831 4219  Q 1534 4219 1204 4116  Q 875 4013 500 3803  L 500 4441  Q 881 4594 1212 4672  Q 1544 4750 1819 4750  Q 2544 4750 2975 4387  Q 3406 4025 3406 3419  Q 3406 3131 3298 2873  Q 3191 2616 2906 2266  Q 2828 2175 2409 1742  Q 1991 1309 1228 531  z "
                   transform="scale(0.015625)" />
              </defs>
              <use
                 xlink:href="#DejaVuSans-33"
                 id="use18" />
              <use
                 xlink:href="#DejaVuSans-32"
                 x="63.623047"
                 id="use19" />
            </g>
          </g>
        </g>
        <g
           id="xtick_3">
          <g
             id="line2d_3">
            <g
               id="g20">
              <use
                 xlink:href="#mf338e04167"
                 x="195.161755"
                 y="243.504"
                 style="stroke: #000000; stroke-width: 0.8"
                 id="use20" />
            </g>
          </g>
          <g
             id="text_3">
            <!-- 64 -->
            <g
               transform="translate(188.799255 258.102437)scale(0.1 -0.1)"
               id="g22">
              <defs
                 id="defs20">
                <path
                   id="DejaVuSans-34"
                   d="M 2419 4116  L 825 1625  L 2419 1625  L 2419 4116  z M 2253 4666  L 3047 4666  L 3047 1625  L 3713 1625  L 3713 1100  L 3047 1100  L 3047 0  L 2419 0  L 2419 1100  L 313 1100  L 313 1709  L 2253 4666  z "
                   transform="scale(0.015625)" />
              </defs>
              <use
                 xlink:href="#DejaVuSans-36"
                 id="use21" />
              <use
                 xlink:href="#DejaVuSans-34"
                 x="63.623047"
                 id="use22" />
            </g>
          </g>
        </g>
        <g
           id="xtick_4">
          <g
             id="line2d_4">
            <g
               id="g23">
              <use
                 xlink:href="#mf338e04167"
                 x="247.638245"
                 y="243.504"
                 style="stroke: #000000; stroke-width: 0.8"
                 id="use23" />
            </g>
          </g>
          <g
             id="text_4">
            <!-- 128 -->
            <g
               transform="translate(238.094495 258.102437)scale(0.1 -0.1)"
               id="g26">
              <defs
                 id="defs23">
                <path
                   id="DejaVuSans-38"
                   d="M 2034 2216  Q 1584 2216 1326 1975  Q 1069 1734 1069 1313  Q 1069 891 1326 650  Q 1584 409 2034 409  Q 2484 409 2743 651  Q 3003 894 3003 1313  Q 3003 1734 2745 1975  Q 2488 2216 2034 2216  z M 1403 2484  Q 997 2584 770 2862  Q 544 3141 544 3541  Q 544 4100 942 4425  Q 1341 4750 2034 4750  Q 2731 4750 3128 4425  Q 3525 4100 3525 3541  Q 3525 3141 3298 2862  Q 3072 2584 2669 2484  Q 3125 2378 3379 2068  Q 3634 1759 3634 1313  Q 3634 634 3220 271  Q 2806 -91 2034 -91  Q 1263 -91 848 271  Q 434 634 434 1313  Q 434 1759 690 2068  Q 947 2378 1403 2484  z M 1172 3481  Q 1172 3119 1398 2916  Q 1625 2713 2034 2713  Q 2441 2713 2670 2916  Q 2900 3119 2900 3481  Q 2900 3844 2670 4047  Q 2441 4250 2034 4250  Q 1625 4250 1398 4047  Q 1172 3844 1172 3481  z "
                   transform="scale(0.015625)" />
              </defs>
              <use
                 xlink:href="#DejaVuSans-31"
                 id="use24" />
              <use
                 xlink:href="#DejaVuSans-32"
                 x="63.623047"
                 id="use25" />
              <use
                 xlink:href="#DejaVuSans-38"
                 x="127.246094"
                 id="use26" />
            </g>
          </g>
        </g>
        <g
           id="xtick_5">
          <g
             id="line2d_5">
            <g
               id="g27">
              <use
                 xlink:href="#mf338e04167"
                 x="300.114734"
                 y="243.504"
                 style="stroke: #000000; stroke-width: 0.8"
                 id="use27" />
            </g>
          </g>
          <g
             id="text_5">
            <!-- 256 -->
            <g
               transform="translate(290.570984 258.102437)scale(0.1 -0.1)"
               id="g30">
              <defs
                 id="defs27">
                <path
                   id="DejaVuSans-35"
                   d="M 691 4666  L 3169 4666  L 3169 4134  L 1269 4134  L 1269 2991  Q 1406 3038 1543 3061  Q 1681 3084 1819 3084  Q 2600 3084 3056 2656  Q 3513 2228 3513 1497  Q 3513 744 3044 326  Q 2575 -91 1722 -91  Q 1428 -91 1123 -41  Q 819 9 494 109  L 494 744  Q 775 591 1075 516  Q 1375 441 1709 441  Q 2250 441 2565 725  Q 2881 1009 2881 1497  Q 2881 1984 2565 2268  Q 2250 2553 1709 2553  Q 1456 2553 1204 2497  Q 953 2441 691 2322  L 691 4666  z "
                   transform="scale(0.015625)" />
              </defs>
              <use
                 xlink:href="#DejaVuSans-32"
                 id="use28" />
              <use
                 xlink:href="#DejaVuSans-35"
                 x="63.623047"
                 id="use29" />
              <use
                 xlink:href="#DejaVuSans-36"
                 x="127.246094"
                 id="use30" />
            </g>
          </g>
        </g>
        <g
           id="xtick_6">
          <g
             id="line2d_6">
            <g
               id="g31">
              <use
                 xlink:href="#mf338e04167"
                 x="352.591223"
                 y="243.504"
                 style="stroke: #000000; stroke-width: 0.8"
                 id="use31" />
            </g>
          </g>
          <g
             id="text_6">
            <!-- 512 -->
            <g
               transform="translate(343.047473 258.102437)scale(0.1 -0.1)"
               id="g34">
              <use
                 xlink:href="#DejaVuSans-35"
                 id="use32" />
              <use
                 xlink:href="#DejaVuSans-31"
                 x="63.623047"
                 id="use33" />
              <use
                 xlink:href="#DejaVuSans-32"
                 x="127.246094"
                 id="use34" />
            </g>
          </g>
        </g>
        <g
           id="text_7">
          <!-- context window -->
          <g
             transform="translate(181.995313 271.780562)scale(0.1 -0.1)"
             id="g48">
            <defs
               id="defs34">
              <path
                 id="DejaVuSans-63"
                 d="M 3122 3366  L 3122 2828  Q 2878 2963 2633 3030  Q 2388 3097 2138 3097  Q 1578 3097 1268 2742  Q 959 2388 959 1747  Q 959 1106 1268 751  Q 1578 397 2138 397  Q 2388 397 2633 464  Q 2878 531 3122 666  L 3122 134  Q 2881 22 2623 -34  Q 2366 -91 2075 -91  Q 1284 -91 818 406  Q 353 903 353 1747  Q 353 2603 823 3093  Q 1294 3584 2113 3584  Q 2378 3584 2631 3529  Q 2884 3475 3122 3366  z "
                 transform="scale(0.015625)" />
              <path
                 id="DejaVuSans-6f"
                 d="M 1959 3097  Q 1497 3097 1228 2736  Q 959 2375 959 1747  Q 959 1119 1226 758  Q 1494 397 1959 397  Q 2419 397 2687 759  Q 2956 1122 2956 1747  Q 2956 2369 2687 2733  Q 2419 3097 1959 3097  z M 1959 3584  Q 2709 3584 3137 3096  Q 3566 2609 3566 1747  Q 3566 888 3137 398  Q 2709 -91 1959 -91  Q 1206 -91 779 398  Q 353 888 353 1747  Q 353 2609 779 3096  Q 1206 3584 1959 3584  z "
                 transform="scale(0.015625)" />
              <path
                 id="DejaVuSans-6e"
                 d="M 3513 2113  L 3513 0  L 2938 0  L 2938 2094  Q 2938 2591 2744 2837  Q 2550 3084 2163 3084  Q 1697 3084 1428 2787  Q 1159 2491 1159 1978  L 1159 0  L 581 0  L 581 3500  L 1159 3500  L 1159 2956  Q 1366 3272 1645 3428  Q 1925 3584 2291 3584  Q 2894 3584 3203 3211  Q 3513 2838 3513 2113  z "
                 transform="scale(0.015625)" />
              <path
                 id="DejaVuSans-74"
                 d="M 1172 4494  L 1172 3500  L 2356 3500  L 2356 3053  L 1172 3053  L 1172 1153  Q 1172 725 1289 603  Q 1406 481 1766 481  L 2356 481  L 2356 0  L 1766 0  Q 1100 0 847 248  Q 594 497 594 1153  L 594 3053  L 172 3053  L 172 3500  L 594 3500  L 594 4494  L 1172 4494  z "
                 transform="scale(0.015625)" />
              <path
                 id="DejaVuSans-65"
                 d="M 3597 1894  L 3597 1613  L 953 1613  Q 991 1019 1311 708  Q 1631 397 2203 397  Q 2534 397 2845 478  Q 3156 559 3463 722  L 3463 178  Q 3153 47 2828 -22  Q 2503 -91 2169 -91  Q 1331 -91 842 396  Q 353 884 353 1716  Q 353 2575 817 3079  Q 1281 3584 2069 3584  Q 2775 3584 3186 3129  Q 3597 2675 3597 1894  z M 3022 2063  Q 3016 2534 2758 2815  Q 2500 3097 2075 3097  Q 1594 3097 1305 2825  Q 1016 2553 972 2059  L 3022 2063  z "
                 transform="scale(0.015625)" />
              <path
                 id="DejaVuSans-78"
                 d="M 3513 3500  L 2247 1797  L 3578 0  L 2900 0  L 1881 1375  L 863 0  L 184 0  L 1544 1831  L 300 3500  L 978 3500  L 1906 2253  L 2834 3500  L 3513 3500  z "
                 transform="scale(0.015625)" />
              <path
                 id="DejaVuSans-20"
                 transform="scale(0.015625)" />
              <path
                 id="DejaVuSans-77"
                 d="M 269 3500  L 844 3500  L 1563 769  L 2278 3500  L 2956 3500  L 3675 769  L 4391 3500  L 4966 3500  L 4050 0  L 3372 0  L 2619 2869  L 1863 0  L 1184 0  L 269 3500  z "
                 transform="scale(0.015625)" />
              <path
                 id="DejaVuSans-69"
                 d="M 603 3500  L 1178 3500  L 1178 0  L 603 0  L 603 3500  z M 603 4863  L 1178 4863  L 1178 4134  L 603 4134  L 603 4863  z "
                 transform="scale(0.015625)" />
              <path
                 id="DejaVuSans-64"
                 d="M 2906 2969  L 2906 4863  L 3481 4863  L 3481 0  L 2906 0  L 2906 525  Q 2725 213 2448 61  Q 2172 -91 1784 -91  Q 1150 -91 751 415  Q 353 922 353 1747  Q 353 2572 751 3078  Q 1150 3584 1784 3584  Q 2172 3584 2448 3432  Q 2725 3281 2906 2969  z M 947 1747  Q 947 1113 1208 752  Q 1469 391 1925 391  Q 2381 391 2643 752  Q 2906 1113 2906 1747  Q 2906 2381 2643 2742  Q 2381 3103 1925 3103  Q 1469 3103 1208 2742  Q 947 2381 947 1747  z "
                 transform="scale(0.015625)" />
            </defs>
            <use
               xlink:href="#DejaVuSans-63"
               id="use35" />
            <use
               xlink:href="#DejaVuSans-6f"
               x="54.980469"
               id="use36" />
            <use
               xlink:href="#DejaVuSans-6e"
               x="116.162109"
               id="use37" />
            <use
               xlink:href="#DejaVuSans-74"
               x="179.541016"
               id="use38" />
            <use
               xlink:href="#DejaVuSans-65"
               x="218.75"
               id="use39" />
            <use
               xlink:href="#DejaVuSans-78"
               x="278.523438"
               id="use40" />
            <use
               xlink:href="#DejaVuSans-74"
               x="337.703125"
               id="use41" />
            <use
               xlink:href="#DejaVuSans-20"
               x="376.912109"
               id="use42" />
            <use
               xlink:href="#DejaVuSans-77"
               x="408.699219"
               id="use43" />
            <use
               xlink:href="#DejaVuSans-69"
               x="490.486328"
               id="use44" />
            <use
               xlink:href="#DejaVuSans-6e"
               x="518.269531"
               id="use45" />
            <use
               xlink:href="#DejaVuSans-64"
               x="581.648438"
               id="use46" />
            <use
               xlink:href="#DejaVuSans-6f"
               x="645.125"
               id="use47" />
            <use
               xlink:href="#DejaVuSans-77"
               x="706.306641"
               id="use48" />
          </g>
        </g>
      </g>
      <g
         id="matplotlib.axis_2">
        <g
           id="ytick_1">
          <g
             id="line2d_7">
            <defs
               id="defs48">
              <path
                 id="m2092471d1b"
                 d="M 0 0  L -3.5 0  "
                 style="stroke: #000000; stroke-width: 0.8" />
            </defs>
            <g
               id="g49">
              <use
                 xlink:href="#m2092471d1b"
                 x="54"
                 y="243.504"
                 style="stroke: #000000; stroke-width: 0.8"
                 id="use49" />
            </g>
          </g>
          <g
             id="text_8">
            <!-- 0.0 -->
            <g
               transform="translate(31.096875 247.303219)scale(0.1 -0.1)"
               id="g52">
              <defs
                 id="defs49">
                <path
                   id="DejaVuSans-30"
                   d="M 2034 4250  Q 1547 4250 1301 3770  Q 1056 3291 1056 2328  Q 1056 1369 1301 889  Q 1547 409 2034 409  Q 2525 409 2770 889  Q 3016 1369 3016 2328  Q 3016 3291 2770 3770  Q 2525 4250 2034 4250  z M 2034 4750  Q 2819 4750 3233 4129  Q 3647 3509 3647 2328  Q 3647 1150 3233 529  Q 2819 -91 2034 -91  Q 1250 -91 836 529  Q 422 1150 422 2328  Q 422 3509 836 4129  Q 1250 4750 2034 4750  z "
                   transform="scale(0.015625)" />
                <path
                   id="DejaVuSans-2e"
                   d="M 684 794  L 1344 794  L 1344 0  L 684 0  L 684 794  z "
                   transform="scale(0.015625)" />
              </defs>
              <use
                 xlink:href="#DejaVuSans-30"
                 id="use50" />
              <use
                 xlink:href="#DejaVuSans-2e"
                 x="63.623047"
                 id="use51" />
              <use
                 xlink:href="#DejaVuSans-30"
                 x="95.410156"
                 id="use52" />
            </g>
          </g>
        </g>
        <g
           id="ytick_2">
          <g
             id="line2d_8">
            <g
               id="g53">
              <use
                 xlink:href="#m2092471d1b"
                 x="54"
                 y="209.147836"
                 style="stroke: #000000; stroke-width: 0.8"
                 id="use53" />
            </g>
          </g>
          <g
             id="text_9">
            <!-- 0.5 -->
            <g
               transform="translate(31.096875 212.947054)scale(0.1 -0.1)"
               id="g56">
              <use
                 xlink:href="#DejaVuSans-30"
                 id="use54" />
              <use
                 xlink:href="#DejaVuSans-2e"
                 x="63.623047"
                 id="use55" />
              <use
                 xlink:href="#DejaVuSans-35"
                 x="95.410156"
                 id="use56" />
            </g>
          </g>
        </g>
        <g
           id="ytick_3">
          <g
             id="line2d_9">
            <g
               id="g57">
              <use
                 xlink:href="#m2092471d1b"
                 x="54"
                 y="174.791671"
                 style="stroke: #000000; stroke-width: 0.8"
                 id="use57" />
            </g>
          </g>
          <g
             id="text_10">
            <!-- 1.0 -->
            <g
               transform="translate(31.096875 178.59089)scale(0.1 -0.1)"
               id="g60">
              <use
                 xlink:href="#DejaVuSans-31"
                 id="use58" />
              <use
                 xlink:href="#DejaVuSans-2e"
                 x="63.623047"
                 id="use59" />
              <use
                 xlink:href="#DejaVuSans-30"
                 x="95.410156"
                 id="use60" />
            </g>
          </g>
        </g>
        <g
           id="ytick_4">
          <g
             id="line2d_10">
            <g
               id="g61">
              <use
                 xlink:href="#m2092471d1b"
                 x="54"
                 y="140.435507"
                 style="stroke: #000000; stroke-width: 0.8"
                 id="use61" />
            </g>
          </g>
          <g
             id="text_11">
            <!-- 1.5 -->
            <g
               transform="translate(31.096875 144.234726)scale(0.1 -0.1)"
               id="g64">
              <use
                 xlink:href="#DejaVuSans-31"
                 id="use62" />
              <use
                 xlink:href="#DejaVuSans-2e"
                 x="63.623047"
                 id="use63" />
              <use
                 xlink:href="#DejaVuSans-35"
                 x="95.410156"
                 id="use64" />
            </g>
          </g>
        </g>
        <g
           id="ytick_5">
          <g
             id="line2d_11">
            <g
               id="g65">
              <use
                 xlink:href="#m2092471d1b"
                 x="54"
                 y="106.079342"
                 style="stroke: #000000; stroke-width: 0.8"
                 id="use65" />
            </g>
          </g>
          <g
             id="text_12">
            <!-- 2.0 -->
            <g
               transform="translate(31.096875 109.878561)scale(0.1 -0.1)"
               id="g68">
              <use
                 xlink:href="#DejaVuSans-32"
                 id="use66" />
              <use
                 xlink:href="#DejaVuSans-2e"
                 x="63.623047"
                 id="use67" />
              <use
                 xlink:href="#DejaVuSans-30"
                 x="95.410156"
                 id="use68" />
            </g>
          </g>
        </g>
        <g
           id="ytick_6">
          <g
             id="line2d_12">
            <g
               id="g69">
              <use
                 xlink:href="#m2092471d1b"
                 x="54"
                 y="71.723178"
                 style="stroke: #000000; stroke-width: 0.8"
                 id="use69" />
            </g>
          </g>
          <g
             id="text_13">
            <!-- 2.5 -->
            <g
               transform="translate(31.096875 75.522397)scale(0.1 -0.1)"
               id="g72">
              <use
                 xlink:href="#DejaVuSans-32"
                 id="use70" />
              <use
                 xlink:href="#DejaVuSans-2e"
                 x="63.623047"
                 id="use71" />
              <use
                 xlink:href="#DejaVuSans-35"
                 x="95.410156"
                 id="use72" />
            </g>
          </g>
        </g>
        <g
           id="ytick_7">
          <g
             id="line2d_13">
            <g
               id="g73">
              <use
                 xlink:href="#m2092471d1b"
                 x="54"
                 y="37.367014"
                 style="stroke: #000000; stroke-width: 0.8"
                 id="use73" />
            </g>
          </g>
          <g
             id="text_14">
            <!-- 3.0 -->
            <g
               transform="translate(31.096875 41.166232)scale(0.1 -0.1)"
               id="g76">
              <use
                 xlink:href="#DejaVuSans-33"
                 id="use74" />
              <use
                 xlink:href="#DejaVuSans-2e"
                 x="63.623047"
                 id="use75" />
              <use
                 xlink:href="#DejaVuSans-30"
                 x="95.410156"
                 id="use76" />
            </g>
          </g>
        </g>
        <g
           id="text_15">
          <!-- % of loss difference BW/FW -->
          <g
             transform="translate(13.819375 206.623469)rotate(-90)scale(0.1 -0.1)"
             id="g102">
            <defs
               id="defs76">
              <path
                 id="DejaVuSans-25"
                 d="M 4653 2053  Q 4381 2053 4226 1822  Q 4072 1591 4072 1178  Q 4072 772 4226 539  Q 4381 306 4653 306  Q 4919 306 5073 539  Q 5228 772 5228 1178  Q 5228 1588 5073 1820  Q 4919 2053 4653 2053  z M 4653 2450  Q 5147 2450 5437 2106  Q 5728 1763 5728 1178  Q 5728 594 5436 251  Q 5144 -91 4653 -91  Q 4153 -91 3862 251  Q 3572 594 3572 1178  Q 3572 1766 3864 2108  Q 4156 2450 4653 2450  z M 1428 4353  Q 1159 4353 1004 4120  Q 850 3888 850 3481  Q 850 3069 1003 2837  Q 1156 2606 1428 2606  Q 1700 2606 1854 2837  Q 2009 3069 2009 3481  Q 2009 3884 1853 4118  Q 1697 4353 1428 4353  z M 4250 4750  L 4750 4750  L 1831 -91  L 1331 -91  L 4250 4750  z M 1428 4750  Q 1922 4750 2215 4408  Q 2509 4066 2509 3481  Q 2509 2891 2217 2550  Q 1925 2209 1428 2209  Q 931 2209 642 2551  Q 353 2894 353 3481  Q 353 4063 643 4406  Q 934 4750 1428 4750  z "
                 transform="scale(0.015625)" />
              <path
                 id="DejaVuSans-66"
                 d="M 2375 4863  L 2375 4384  L 1825 4384  Q 1516 4384 1395 4259  Q 1275 4134 1275 3809  L 1275 3500  L 2222 3500  L 2222 3053  L 1275 3053  L 1275 0  L 697 0  L 697 3053  L 147 3053  L 147 3500  L 697 3500  L 697 3744  Q 697 4328 969 4595  Q 1241 4863 1831 4863  L 2375 4863  z "
                 transform="scale(0.015625)" />
              <path
                 id="DejaVuSans-6c"
                 d="M 603 4863  L 1178 4863  L 1178 0  L 603 0  L 603 4863  z "
                 transform="scale(0.015625)" />
              <path
                 id="DejaVuSans-73"
                 d="M 2834 3397  L 2834 2853  Q 2591 2978 2328 3040  Q 2066 3103 1784 3103  Q 1356 3103 1142 2972  Q 928 2841 928 2578  Q 928 2378 1081 2264  Q 1234 2150 1697 2047  L 1894 2003  Q 2506 1872 2764 1633  Q 3022 1394 3022 966  Q 3022 478 2636 193  Q 2250 -91 1575 -91  Q 1294 -91 989 -36  Q 684 19 347 128  L 347 722  Q 666 556 975 473  Q 1284 391 1588 391  Q 1994 391 2212 530  Q 2431 669 2431 922  Q 2431 1156 2273 1281  Q 2116 1406 1581 1522  L 1381 1569  Q 847 1681 609 1914  Q 372 2147 372 2553  Q 372 3047 722 3315  Q 1072 3584 1716 3584  Q 2034 3584 2315 3537  Q 2597 3491 2834 3397  z "
                 transform="scale(0.015625)" />
              <path
                 id="DejaVuSans-72"
                 d="M 2631 2963  Q 2534 3019 2420 3045  Q 2306 3072 2169 3072  Q 1681 3072 1420 2755  Q 1159 2438 1159 1844  L 1159 0  L 581 0  L 581 3500  L 1159 3500  L 1159 2956  Q 1341 3275 1631 3429  Q 1922 3584 2338 3584  Q 2397 3584 2469 3576  Q 2541 3569 2628 3553  L 2631 2963  z "
                 transform="scale(0.015625)" />
              <path
                 id="DejaVuSans-42"
                 d="M 1259 2228  L 1259 519  L 2272 519  Q 2781 519 3026 730  Q 3272 941 3272 1375  Q 3272 1813 3026 2020  Q 2781 2228 2272 2228  L 1259 2228  z M 1259 4147  L 1259 2741  L 2194 2741  Q 2656 2741 2882 2914  Q 3109 3088 3109 3444  Q 3109 3797 2882 3972  Q 2656 4147 2194 4147  L 1259 4147  z M 628 4666  L 2241 4666  Q 2963 4666 3353 4366  Q 3744 4066 3744 3513  Q 3744 3084 3544 2831  Q 3344 2578 2956 2516  Q 3422 2416 3680 2098  Q 3938 1781 3938 1306  Q 3938 681 3513 340  Q 3088 0 2303 0  L 628 0  L 628 4666  z "
                 transform="scale(0.015625)" />
              <path
                 id="DejaVuSans-57"
                 d="M 213 4666  L 850 4666  L 1831 722  L 2809 4666  L 3519 4666  L 4500 722  L 5478 4666  L 6119 4666  L 4947 0  L 4153 0  L 3169 4050  L 2175 0  L 1381 0  L 213 4666  z "
                 transform="scale(0.015625)" />
              <path
                 id="DejaVuSans-2f"
                 d="M 1625 4666  L 2156 4666  L 531 -594  L 0 -594  L 1625 4666  z "
                 transform="scale(0.015625)" />
              <path
                 id="DejaVuSans-46"
                 d="M 628 4666  L 3309 4666  L 3309 4134  L 1259 4134  L 1259 2759  L 3109 2759  L 3109 2228  L 1259 2228  L 1259 0  L 628 0  L 628 4666  z "
                 transform="scale(0.015625)" />
            </defs>
            <use
               xlink:href="#DejaVuSans-25"
               id="use77" />
            <use
               xlink:href="#DejaVuSans-20"
               x="95.019531"
               id="use78" />
            <use
               xlink:href="#DejaVuSans-6f"
               x="126.806641"
               id="use79" />
            <use
               xlink:href="#DejaVuSans-66"
               x="187.988281"
               id="use80" />
            <use
               xlink:href="#DejaVuSans-20"
               x="223.193359"
               id="use81" />
            <use
               xlink:href="#DejaVuSans-6c"
               x="254.980469"
               id="use82" />
            <use
               xlink:href="#DejaVuSans-6f"
               x="282.763672"
               id="use83" />
            <use
               xlink:href="#DejaVuSans-73"
               x="343.945312"
               id="use84" />
            <use
               xlink:href="#DejaVuSans-73"
               x="396.044922"
               id="use85" />
            <use
               xlink:href="#DejaVuSans-20"
               x="448.144531"
               id="use86" />
            <use
               xlink:href="#DejaVuSans-64"
               x="479.931641"
               id="use87" />
            <use
               xlink:href="#DejaVuSans-69"
               x="543.408203"
               id="use88" />
            <use
               xlink:href="#DejaVuSans-66"
               x="571.191406"
               id="use89" />
            <use
               xlink:href="#DejaVuSans-66"
               x="606.396484"
               id="use90" />
            <use
               xlink:href="#DejaVuSans-65"
               x="641.601562"
               id="use91" />
            <use
               xlink:href="#DejaVuSans-72"
               x="703.125"
               id="use92" />
            <use
               xlink:href="#DejaVuSans-65"
               x="741.988281"
               id="use93" />
            <use
               xlink:href="#DejaVuSans-6e"
               x="803.511719"
               id="use94" />
            <use
               xlink:href="#DejaVuSans-63"
               x="866.890625"
               id="use95" />
            <use
               xlink:href="#DejaVuSans-65"
               x="921.871094"
               id="use96" />
            <use
               xlink:href="#DejaVuSans-20"
               x="983.394531"
               id="use97" />
            <use
               xlink:href="#DejaVuSans-42"
               x="1015.181641"
               id="use98" />
            <use
               xlink:href="#DejaVuSans-57"
               x="1080.160156"
               id="use99" />
            <use
               xlink:href="#DejaVuSans-2f"
               x="1179.037109"
               id="use100" />
            <use
               xlink:href="#DejaVuSans-46"
               x="1212.728516"
               id="use101" />
            <use
               xlink:href="#DejaVuSans-57"
               x="1270.248047"
               id="use102" />
          </g>
          <!-- (backward loss/forward loss - 1) -->
          <g
             transform="translate(25.017187 217.759406)rotate(-90)scale(0.1 -0.1)"
             id="g134">
            <defs
               id="defs102">
              <path
                 id="DejaVuSans-28"
                 d="M 1984 4856  Q 1566 4138 1362 3434  Q 1159 2731 1159 2009  Q 1159 1288 1364 580  Q 1569 -128 1984 -844  L 1484 -844  Q 1016 -109 783 600  Q 550 1309 550 2009  Q 550 2706 781 3412  Q 1013 4119 1484 4856  L 1984 4856  z "
                 transform="scale(0.015625)" />
              <path
                 id="DejaVuSans-62"
                 d="M 3116 1747  Q 3116 2381 2855 2742  Q 2594 3103 2138 3103  Q 1681 3103 1420 2742  Q 1159 2381 1159 1747  Q 1159 1113 1420 752  Q 1681 391 2138 391  Q 2594 391 2855 752  Q 3116 1113 3116 1747  z M 1159 2969  Q 1341 3281 1617 3432  Q 1894 3584 2278 3584  Q 2916 3584 3314 3078  Q 3713 2572 3713 1747  Q 3713 922 3314 415  Q 2916 -91 2278 -91  Q 1894 -91 1617 61  Q 1341 213 1159 525  L 1159 0  L 581 0  L 581 4863  L 1159 4863  L 1159 2969  z "
                 transform="scale(0.015625)" />
              <path
                 id="DejaVuSans-61"
                 d="M 2194 1759  Q 1497 1759 1228 1600  Q 959 1441 959 1056  Q 959 750 1161 570  Q 1363 391 1709 391  Q 2188 391 2477 730  Q 2766 1069 2766 1631  L 2766 1759  L 2194 1759  z M 3341 1997  L 3341 0  L 2766 0  L 2766 531  Q 2569 213 2275 61  Q 1981 -91 1556 -91  Q 1019 -91 701 211  Q 384 513 384 1019  Q 384 1609 779 1909  Q 1175 2209 1959 2209  L 2766 2209  L 2766 2266  Q 2766 2663 2505 2880  Q 2244 3097 1772 3097  Q 1472 3097 1187 3025  Q 903 2953 641 2809  L 641 3341  Q 956 3463 1253 3523  Q 1550 3584 1831 3584  Q 2591 3584 2966 3190  Q 3341 2797 3341 1997  z "
                 transform="scale(0.015625)" />
              <path
                 id="DejaVuSans-6b"
                 d="M 581 4863  L 1159 4863  L 1159 1991  L 2875 3500  L 3609 3500  L 1753 1863  L 3688 0  L 2938 0  L 1159 1709  L 1159 0  L 581 0  L 581 4863  z "
                 transform="scale(0.015625)" />
              <path
                 id="DejaVuSans-2d"
                 d="M 313 2009  L 1997 2009  L 1997 1497  L 313 1497  L 313 2009  z "
                 transform="scale(0.015625)" />
              <path
                 id="DejaVuSans-29"
                 d="M 513 4856  L 1013 4856  Q 1481 4119 1714 3412  Q 1947 2706 1947 2009  Q 1947 1309 1714 600  Q 1481 -109 1013 -844  L 513 -844  Q 928 -128 1133 580  Q 1338 1288 1338 2009  Q 1338 2731 1133 3434  Q 928 4138 513 4856  z "
                 transform="scale(0.015625)" />
            </defs>
            <use
               xlink:href="#DejaVuSans-28"
               id="use103" />
            <use
               xlink:href="#DejaVuSans-62"
               x="39.013672"
               id="use104" />
            <use
               xlink:href="#DejaVuSans-61"
               x="102.490234"
               id="use105" />
            <use
               xlink:href="#DejaVuSans-63"
               x="163.769531"
               id="use106" />
            <use
               xlink:href="#DejaVuSans-6b"
               x="218.75"
               id="use107" />
            <use
               xlink:href="#DejaVuSans-77"
               x="276.660156"
               id="use108" />
            <use
               xlink:href="#DejaVuSans-61"
               x="358.447266"
               id="use109" />
            <use
               xlink:href="#DejaVuSans-72"
               x="419.726562"
               id="use110" />
            <use
               xlink:href="#DejaVuSans-64"
               x="459.089844"
               id="use111" />
            <use
               xlink:href="#DejaVuSans-20"
               x="522.566406"
               id="use112" />
            <use
               xlink:href="#DejaVuSans-6c"
               x="554.353516"
               id="use113" />
            <use
               xlink:href="#DejaVuSans-6f"
               x="582.136719"
               id="use114" />
            <use
               xlink:href="#DejaVuSans-73"
               x="643.318359"
               id="use115" />
            <use
               xlink:href="#DejaVuSans-73"
               x="695.417969"
               id="use116" />
            <use
               xlink:href="#DejaVuSans-2f"
               x="747.517578"
               id="use117" />
            <use
               xlink:href="#DejaVuSans-66"
               x="781.208984"
               id="use118" />
            <use
               xlink:href="#DejaVuSans-6f"
               x="816.414062"
               id="use119" />
            <use
               xlink:href="#DejaVuSans-72"
               x="877.595703"
               id="use120" />
            <use
               xlink:href="#DejaVuSans-77"
               x="918.708984"
               id="use121" />
            <use
               xlink:href="#DejaVuSans-61"
               x="1000.496094"
               id="use122" />
            <use
               xlink:href="#DejaVuSans-72"
               x="1061.775391"
               id="use123" />
            <use
               xlink:href="#DejaVuSans-64"
               x="1101.138672"
               id="use124" />
            <use
               xlink:href="#DejaVuSans-20"
               x="1164.615234"
               id="use125" />
            <use
               xlink:href="#DejaVuSans-6c"
               x="1196.402344"
               id="use126" />
            <use
               xlink:href="#DejaVuSans-6f"
               x="1224.185547"
               id="use127" />
            <use
               xlink:href="#DejaVuSans-73"
               x="1285.367188"
               id="use128" />
            <use
               xlink:href="#DejaVuSans-73"
               x="1337.466797"
               id="use129" />
            <use
               xlink:href="#DejaVuSans-20"
               x="1389.566406"
               id="use130" />
            <use
               xlink:href="#DejaVuSans-2d"
               x="1421.353516"
               id="use131" />
            <use
               xlink:href="#DejaVuSans-20"
               x="1457.4375"
               id="use132" />
            <use
               xlink:href="#DejaVuSans-31"
               x="1489.224609"
               id="use133" />
            <use
               xlink:href="#DejaVuSans-29"
               x="1552.847656"
               id="use134" />
          </g>
        </g>
      </g>
      <g
         id="patch_15">
        <path
           d="M 54 243.504  L 54 32.832  "
           style="fill: none; stroke: #000000; stroke-width: 0.8; stroke-linejoin: miter; stroke-linecap: square"
           id="path134" />
      </g>
      <g
         id="patch_16">
        <path
           d="M 388.8 243.504  L 388.8 32.832  "
           style="fill: none; stroke: #000000; stroke-width: 0.8; stroke-linejoin: miter; stroke-linecap: square"
           id="path135" />
      </g>
      <g
         id="patch_17">
        <path
           d="M 54 243.504  L 388.8 243.504  "
           style="fill: none; stroke: #000000; stroke-width: 0.8; stroke-linejoin: miter; stroke-linecap: square"
           id="path136" />
      </g>
      <g
         id="patch_18">
        <path
           d="M 54 32.832  L 388.8 32.832  "
           style="fill: none; stroke: #000000; stroke-width: 0.8; stroke-linejoin: miter; stroke-linecap: square"
           id="path137" />
      </g>
      <g
         id="legend_1">
        <g
           id="patch_19">
          <path
             d="M 61 70.18825  L 129.107812 70.18825  Q 131.107812 70.18825 131.107812 68.18825  L 131.107812 39.832  Q 131.107812 37.832 129.107812 37.832  L 61 37.832  Q 59 37.832 59 39.832  L 59 68.18825  Q 59 70.18825 61 70.18825  z "
             style="fill: #ffffff; opacity: 0.8; stroke: #cccccc; stroke-linejoin: miter"
             id="path138" />
        </g>
        <g
           id="patch_20">
          <path
             d="M 63 49.430437  L 83 49.430437  L 83 42.430437  L 63 42.430437  z "
             style="fill: #00ff00"
             id="path139" />
        </g>
        <g
           id="text_16">
          <!-- French -->
          <g
             transform="translate(91 49.430437)scale(0.1 -0.1)"
             id="g144">
            <defs
               id="defs139">
              <path
                 id="DejaVuSans-68"
                 d="M 3513 2113  L 3513 0  L 2938 0  L 2938 2094  Q 2938 2591 2744 2837  Q 2550 3084 2163 3084  Q 1697 3084 1428 2787  Q 1159 2491 1159 1978  L 1159 0  L 581 0  L 581 4863  L 1159 4863  L 1159 2956  Q 1366 3272 1645 3428  Q 1925 3584 2291 3584  Q 2894 3584 3203 3211  Q 3513 2838 3513 2113  z "
                 transform="scale(0.015625)" />
            </defs>
            <use
               xlink:href="#DejaVuSans-46"
               id="use139" />
            <use
               xlink:href="#DejaVuSans-72"
               x="50.269531"
               id="use140" />
            <use
               xlink:href="#DejaVuSans-65"
               x="89.132812"
               id="use141" />
            <use
               xlink:href="#DejaVuSans-6e"
               x="150.65625"
               id="use142" />
            <use
               xlink:href="#DejaVuSans-63"
               x="214.035156"
               id="use143" />
            <use
               xlink:href="#DejaVuSans-68"
               x="269.015625"
               id="use144" />
          </g>
        </g>
        <g
           id="patch_21">
          <path
             d="M 63 64.108562  L 83 64.108562  L 83 57.108562  L 63 57.108562  z "
             style="fill: #ff00ff"
             id="path144" />
        </g>
        <g
           id="text_17">
          <!-- English -->
          <g
             transform="translate(91 64.108562)scale(0.1 -0.1)"
             id="g151">
            <defs
               id="defs144">
              <path
                 id="DejaVuSans-45"
                 d="M 628 4666  L 3578 4666  L 3578 4134  L 1259 4134  L 1259 2753  L 3481 2753  L 3481 2222  L 1259 2222  L 1259 531  L 3634 531  L 3634 0  L 628 0  L 628 4666  z "
                 transform="scale(0.015625)" />
              <path
                 id="DejaVuSans-67"
                 d="M 2906 1791  Q 2906 2416 2648 2759  Q 2391 3103 1925 3103  Q 1463 3103 1205 2759  Q 947 2416 947 1791  Q 947 1169 1205 825  Q 1463 481 1925 481  Q 2391 481 2648 825  Q 2906 1169 2906 1791  z M 3481 434  Q 3481 -459 3084 -895  Q 2688 -1331 1869 -1331  Q 1566 -1331 1297 -1286  Q 1028 -1241 775 -1147  L 775 -588  Q 1028 -725 1275 -790  Q 1522 -856 1778 -856  Q 2344 -856 2625 -561  Q 2906 -266 2906 331  L 2906 616  Q 2728 306 2450 153  Q 2172 0 1784 0  Q 1141 0 747 490  Q 353 981 353 1791  Q 353 2603 747 3093  Q 1141 3584 1784 3584  Q 2172 3584 2450 3431  Q 2728 3278 2906 2969  L 2906 3500  L 3481 3500  L 3481 434  z "
                 transform="scale(0.015625)" />
            </defs>
            <use
               xlink:href="#DejaVuSans-45"
               id="use145" />
            <use
               xlink:href="#DejaVuSans-6e"
               x="63.183594"
               id="use146" />
            <use
               xlink:href="#DejaVuSans-67"
               x="126.5625"
               id="use147" />
            <use
               xlink:href="#DejaVuSans-6c"
               x="190.039062"
               id="use148" />
            <use
               xlink:href="#DejaVuSans-69"
               x="217.822266"
               id="use149" />
            <use
               xlink:href="#DejaVuSans-73"
               x="245.605469"
               id="use150" />
            <use
               xlink:href="#DejaVuSans-68"
               x="297.705078"
               id="use151" />
          </g>
        </g>
      </g>
    </g>
  </g>
  <defs
     id="defs151">
    <clipPath
       id="p64d18d3916">
      <rect
         x="54"
         y="32.832"
         width="334.8"
         height="210.672"
         id="rect151" />
    </clipPath>
  </defs>
</svg>
