<?xml version="1.0" standalone="no"?>
<!DOCTYPE svg PUBLIC "-//W3C//DTD SVG 20010904//EN"
 "http://www.w3.org/TR/2001/REC-SVG-20010904/DTD/svg10.dtd">
<svg version="1.0" xmlns="http://www.w3.org/2000/svg"
 width="554.000000pt" height="554.000000pt" viewBox="0 0 554.000000 554.000000"
 preserveAspectRatio="xMidYMid meet">
<metadata>
Created by potrace 1.14, written by Peter Selinger 2001-2017
</metadata>
<g transform="translate(0.000000,554.000000) scale(0.100000,-0.100000)"
fill="#000000" stroke="none">
<path d="M3015 4668 c-71 -123 -168 -214 -290 -274 -66 -32 -95 -51 -93 -62 2
-8 44 -36 94 -61 144 -73 219 -146 305 -299 26 -46 34 -53 57 -50 39 4 40 38
2 106 -43 76 -91 136 -159 199 l-56 53 988 0 c662 0 995 3 1008 10 13 8 19 21
19 46 0 28 -5 36 -26 44 -16 6 -393 10 -1005 10 l-979 0 77 78 c101 100 176
225 160 266 -4 9 -17 16 -30 16 -20 0 -33 -15 -72 -82z"/>
<path d="M508 4060 c-12 -7 -18 -23 -18 -46 0 -43 24 -54 113 -54 84 0 128
-23 145 -74 10 -31 12 -236 10 -968 l-3 -930 -31 -28 c-27 -24 -43 -28 -120
-35 -49 -4 -95 -12 -101 -17 -18 -15 -16 -63 4 -79 24 -21 1032 -21 1056 0 20
16 22 64 5 78 -7 6 -59 15 -116 20 -114 11 -135 23 -152 82 -6 21 -10 198 -10
429 l0 392 163 0 c269 0 459 34 611 110 221 109 336 283 336 511 0 116 -13
180 -55 264 -80 164 -239 271 -490 328 -85 19 -127 21 -710 24 -422 2 -626 0
-637 -7z m712 -103 c0 -2 -8 -19 -17 -38 -17 -32 -18 -100 -21 -948 -2 -814 0
-943 20 -1031 2 -13 -23 -15 -167 -18 -93 -1 -174 0 -181 2 -9 3 -8 18 2 58
20 73 16 1907 -3 1951 l-13 27 190 0 c105 0 190 -2 190 -3z m433 -20 c130 -55
175 -162 184 -432 10 -316 -54 -486 -206 -541 -32 -11 -93 -18 -193 -21 l-148
-5 0 446 c0 479 1 487 51 532 13 12 38 26 54 33 43 15 211 8 258 -12z m288
-32 c244 -82 357 -236 347 -474 -3 -82 -8 -106 -35 -161 -38 -81 -86 -137
-160 -186 -60 -40 -166 -87 -221 -99 l-33 -7 30 54 c60 106 75 188 75 423 1
235 -11 314 -63 418 -16 31 -27 57 -23 57 4 0 41 -11 83 -25z"/>
<path d="M4410 3964 c-25 -29 48 -152 151 -256 l86 -88 -981 0 c-769 0 -986
-3 -1006 -13 -31 -15 -37 -52 -14 -78 17 -18 44 -19 1011 -19 l993 0 -78 -77
c-83 -82 -162 -201 -165 -249 -2 -26 1 -29 28 -29 26 0 34 7 65 65 21 40 68
98 120 151 72 73 99 93 177 130 73 35 92 48 93 65 0 16 -11 26 -47 39 -137 52
-251 151 -330 287 -51 86 -77 104 -103 72z"/>
<path d="M2745 1994 c-70 -38 -116 -107 -159 -236 -30 -89 -32 -114 -10 -122
36 -14 51 3 73 86 13 46 34 103 46 129 48 94 130 129 174 73 38 -48 29 -112
-71 -516 -85 -344 -90 -373 -77 -397 18 -33 84 -41 123 -16 31 20 39 46 116
355 66 265 83 309 162 414 95 126 217 193 339 184 166 -12 170 -174 14 -593
-57 -154 -65 -202 -41 -258 17 -41 74 -91 122 -107 57 -19 154 -8 209 24 73
43 165 175 192 276 13 47 7 60 -27 60 -25 0 -30 -6 -46 -52 -58 -178 -152
-270 -265 -260 -24 3 -43 56 -36 105 3 23 31 108 62 189 77 204 108 326 108
418 -1 41 -6 88 -13 105 -36 93 -123 146 -253 153 -139 8 -261 -42 -367 -152
-49 -51 -60 -56 -60 -26 0 26 -26 78 -54 108 -55 61 -197 91 -261 56z"/>
</g>
</svg>
