<?xml version="1.0" encoding="utf-8" standalone="no"?>
<!DOCTYPE svg PUBLIC "-//W3C//DTD SVG 1.1//EN"
  "http://www.w3.org/Graphics/SVG/1.1/DTD/svg11.dtd">
<svg xmlns:xlink="http://www.w3.org/1999/xlink" width="504pt" height="288pt" viewBox="0 0 504 288" xmlns="http://www.w3.org/2000/svg" version="1.1">
 <metadata>
  <rdf:RDF xmlns:dc="http://purl.org/dc/elements/1.1/" xmlns:cc="http://creativecommons.org/ns#" xmlns:rdf="http://www.w3.org/1999/02/22-rdf-syntax-ns#">
   <cc:Work>
    <dc:type rdf:resource="http://purl.org/dc/dcmitype/StillImage"/>
    <dc:date>2024-03-25T13:05:26.382529</dc:date>
    <dc:format>image/svg+xml</dc:format>
    <dc:creator>
     <cc:Agent>
      <dc:title>Matplotlib v3.5.3, https://matplotlib.org/</dc:title>
     </cc:Agent>
    </dc:creator>
   </cc:Work>
  </rdf:RDF>
 </metadata>
 <defs>
  <style type="text/css">*{stroke-linejoin: round; stroke-linecap: butt}</style>
 </defs>
 <g id="figure_1">
  <g id="patch_1">
   <path d="M 0 288 
L 504 288 
L 504 0 
L 0 0 
z
" style="fill: #ffffff"/>
  </g>
  <g id="axes_1">
   <g id="patch_2">
    <path d="M 63 256.32 
L 453.6 256.32 
L 453.6 34.56 
L 63 34.56 
z
" style="fill: #ffffff"/>
   </g>
   <g id="patch_3">
    <path d="M 80.754545 256.32 
L 82.115047 256.32 
L 82.115047 241.792486 
L 80.754545 241.792486 
z
" clip-path="url(#p8f1464b2a4)" style="fill: #ff8c00"/>
   </g>
   <g id="patch_4">
    <path d="M 82.455172 256.32 
L 83.815674 256.32 
L 83.815674 241.291537 
L 82.455172 241.291537 
z
" clip-path="url(#p8f1464b2a4)" style="fill: #ff8c00"/>
   </g>
   <g id="patch_5">
    <path d="M 84.155799 256.32 
L 85.516301 256.32 
L 85.516301 240.756571 
L 84.155799 240.756571 
z
" clip-path="url(#p8f1464b2a4)" style="fill: #ff8c00"/>
   </g>
   <g id="patch_6">
    <path d="M 85.856426 256.32 
L 87.216928 256.32 
L 87.216928 240.186318 
L 85.856426 240.186318 
z
" clip-path="url(#p8f1464b2a4)" style="fill: #ff8c00"/>
   </g>
   <g id="patch_7">
    <path d="M 87.557053 256.32 
L 88.917555 256.32 
L 88.917555 239.580642 
L 87.557053 239.580642 
z
" clip-path="url(#p8f1464b2a4)" style="fill: #ff8c00"/>
   </g>
   <g id="patch_8">
    <path d="M 89.25768 256.32 
L 90.618182 256.32 
L 90.618182 238.925308 
L 89.25768 238.925308 
z
" clip-path="url(#p8f1464b2a4)" style="fill: #ff8c00"/>
   </g>
   <g id="patch_9">
    <path d="M 90.958307 256.32 
L 92.318809 256.32 
L 92.318809 238.219982 
L 90.958307 238.219982 
z
" clip-path="url(#p8f1464b2a4)" style="fill: #ff8c00"/>
   </g>
   <g id="patch_10">
    <path d="M 92.658934 256.32 
L 94.019436 256.32 
L 94.019436 237.487846 
L 92.658934 237.487846 
z
" clip-path="url(#p8f1464b2a4)" style="fill: #ff8c00"/>
   </g>
   <g id="patch_11">
    <path d="M 94.359561 256.32 
L 95.720063 256.32 
L 95.720063 236.674504 
L 94.359561 236.674504 
z
" clip-path="url(#p8f1464b2a4)" style="fill: #ff8c00"/>
   </g>
   <g id="patch_12">
    <path d="M 96.060188 256.32 
L 97.42069 256.32 
L 97.42069 235.790404 
L 96.060188 235.790404 
z
" clip-path="url(#p8f1464b2a4)" style="fill: #ff8c00"/>
   </g>
   <g id="patch_13">
    <path d="M 97.760815 256.32 
L 99.121317 256.32 
L 99.121317 234.896654 
L 97.760815 234.896654 
z
" clip-path="url(#p8f1464b2a4)" style="fill: #ff8c00"/>
   </g>
   <g id="patch_14">
    <path d="M 99.461442 256.32 
L 100.821944 256.32 
L 100.821944 233.875514 
L 99.461442 233.875514 
z
" clip-path="url(#p8f1464b2a4)" style="fill: #ff8c00"/>
   </g>
   <g id="patch_15">
    <path d="M 101.162069 256.32 
L 102.522571 256.32 
L 102.522571 232.847599 
L 101.162069 232.847599 
z
" clip-path="url(#p8f1464b2a4)" style="fill: #ff8c00"/>
   </g>
   <g id="patch_16">
    <path d="M 102.862696 256.32 
L 104.223197 256.32 
L 104.223197 231.657596 
L 102.862696 231.657596 
z
" clip-path="url(#p8f1464b2a4)" style="fill: #ff8c00"/>
   </g>
   <g id="patch_17">
    <path d="M 104.563323 256.32 
L 105.923824 256.32 
L 105.923824 230.498688 
L 104.563323 230.498688 
z
" clip-path="url(#p8f1464b2a4)" style="fill: #ff8c00"/>
   </g>
   <g id="patch_18">
    <path d="M 106.26395 256.32 
L 107.624451 256.32 
L 107.624451 229.190775 
L 106.26395 229.190775 
z
" clip-path="url(#p8f1464b2a4)" style="fill: #ff8c00"/>
   </g>
   <g id="patch_19">
    <path d="M 107.964577 256.32 
L 109.325078 256.32 
L 109.325078 227.79345 
L 107.964577 227.79345 
z
" clip-path="url(#p8f1464b2a4)" style="fill: #ff8c00"/>
   </g>
   <g id="patch_20">
    <path d="M 109.665204 256.32 
L 111.025705 256.32 
L 111.025705 226.299138 
L 109.665204 226.299138 
z
" clip-path="url(#p8f1464b2a4)" style="fill: #ff8c00"/>
   </g>
   <g id="patch_21">
    <path d="M 111.365831 256.32 
L 112.726332 256.32 
L 112.726332 224.806948 
L 111.365831 224.806948 
z
" clip-path="url(#p8f1464b2a4)" style="fill: #ff8c00"/>
   </g>
   <g id="patch_22">
    <path d="M 113.066458 256.32 
L 114.426959 256.32 
L 114.426959 223.067757 
L 113.066458 223.067757 
z
" clip-path="url(#p8f1464b2a4)" style="fill: #ff8c00"/>
   </g>
   <g id="patch_23">
    <path d="M 114.767085 256.32 
L 116.127586 256.32 
L 116.127586 221.38146 
L 114.767085 221.38146 
z
" clip-path="url(#p8f1464b2a4)" style="fill: #ff8c00"/>
   </g>
   <g id="patch_24">
    <path d="M 116.467712 256.32 
L 117.828213 256.32 
L 117.828213 219.422307 
L 116.467712 219.422307 
z
" clip-path="url(#p8f1464b2a4)" style="fill: #ff8c00"/>
   </g>
   <g id="patch_25">
    <path d="M 118.168339 256.32 
L 119.52884 256.32 
L 119.52884 217.618894 
L 118.168339 217.618894 
z
" clip-path="url(#p8f1464b2a4)" style="fill: #ff8c00"/>
   </g>
   <g id="patch_26">
    <path d="M 119.868966 256.32 
L 121.229467 256.32 
L 121.229467 215.347919 
L 119.868966 215.347919 
z
" clip-path="url(#p8f1464b2a4)" style="fill: #ff8c00"/>
   </g>
   <g id="patch_27">
    <path d="M 121.569592 256.32 
L 122.930094 256.32 
L 122.930094 213.317979 
L 121.569592 213.317979 
z
" clip-path="url(#p8f1464b2a4)" style="fill: #ff8c00"/>
   </g>
   <g id="patch_28">
    <path d="M 123.270219 256.32 
L 124.630721 256.32 
L 124.630721 211.002622 
L 123.270219 211.002622 
z
" clip-path="url(#p8f1464b2a4)" style="fill: #ff8c00"/>
   </g>
   <g id="patch_29">
    <path d="M 124.970846 256.32 
L 126.331348 256.32 
L 126.331348 208.617735 
L 124.970846 208.617735 
z
" clip-path="url(#p8f1464b2a4)" style="fill: #ff8c00"/>
   </g>
   <g id="patch_30">
    <path d="M 126.671473 256.32 
L 128.031975 256.32 
L 128.031975 206.09272 
L 126.671473 206.09272 
z
" clip-path="url(#p8f1464b2a4)" style="fill: #ff8c00"/>
   </g>
   <g id="patch_31">
    <path d="M 128.3721 256.32 
L 129.732602 256.32 
L 129.732602 203.942315 
L 128.3721 203.942315 
z
" clip-path="url(#p8f1464b2a4)" style="fill: #ff8c00"/>
   </g>
   <g id="patch_32">
    <path d="M 130.072727 256.32 
L 131.433229 256.32 
L 131.433229 200.670383 
L 130.072727 200.670383 
z
" clip-path="url(#p8f1464b2a4)" style="fill: #ff8c00"/>
   </g>
   <g id="patch_33">
    <path d="M 131.773354 256.32 
L 133.133856 256.32 
L 133.133856 197.984795 
L 131.773354 197.984795 
z
" clip-path="url(#p8f1464b2a4)" style="fill: #ff8c00"/>
   </g>
   <g id="patch_34">
    <path d="M 133.473981 256.32 
L 134.834483 256.32 
L 134.834483 195.477571 
L 133.473981 195.477571 
z
" clip-path="url(#p8f1464b2a4)" style="fill: #ff8c00"/>
   </g>
   <g id="patch_35">
    <path d="M 135.174608 256.32 
L 136.53511 256.32 
L 136.53511 192.549964 
L 135.174608 192.549964 
z
" clip-path="url(#p8f1464b2a4)" style="fill: #ff8c00"/>
   </g>
   <g id="patch_36">
    <path d="M 136.875235 256.32 
L 138.235737 256.32 
L 138.235737 188.599914 
L 136.875235 188.599914 
z
" clip-path="url(#p8f1464b2a4)" style="fill: #ff8c00"/>
   </g>
   <g id="patch_37">
    <path d="M 138.575862 256.32 
L 139.936364 256.32 
L 139.936364 186.010626 
L 138.575862 186.010626 
z
" clip-path="url(#p8f1464b2a4)" style="fill: #ff8c00"/>
   </g>
   <g id="patch_38">
    <path d="M 140.276489 256.32 
L 141.636991 256.32 
L 141.636991 182.482854 
L 140.276489 182.482854 
z
" clip-path="url(#p8f1464b2a4)" style="fill: #ff8c00"/>
   </g>
   <g id="patch_39">
    <path d="M 141.977116 256.32 
L 143.337618 256.32 
L 143.337618 179.191915 
L 141.977116 179.191915 
z
" clip-path="url(#p8f1464b2a4)" style="fill: #ff8c00"/>
   </g>
   <g id="patch_40">
    <path d="M 143.677743 256.32 
L 145.038245 256.32 
L 145.038245 175.051399 
L 143.677743 175.051399 
z
" clip-path="url(#p8f1464b2a4)" style="fill: #ff8c00"/>
   </g>
   <g id="patch_41">
    <path d="M 145.37837 256.32 
L 146.738871 256.32 
L 146.738871 172.849989 
L 145.37837 172.849989 
z
" clip-path="url(#p8f1464b2a4)" style="fill: #ff8c00"/>
   </g>
   <g id="patch_42">
    <path d="M 147.078997 256.32 
L 148.439498 256.32 
L 148.439498 169.247004 
L 147.078997 169.247004 
z
" clip-path="url(#p8f1464b2a4)" style="fill: #ff8c00"/>
   </g>
   <g id="patch_43">
    <path d="M 148.779624 256.32 
L 150.140125 256.32 
L 150.140125 165.918971 
L 148.779624 165.918971 
z
" clip-path="url(#p8f1464b2a4)" style="fill: #ff8c00"/>
   </g>
   <g id="patch_44">
    <path d="M 150.480251 256.32 
L 151.840752 256.32 
L 151.840752 162.232618 
L 150.480251 162.232618 
z
" clip-path="url(#p8f1464b2a4)" style="fill: #ff8c00"/>
   </g>
   <g id="patch_45">
    <path d="M 152.180878 256.32 
L 153.541379 256.32 
L 153.541379 159.030579 
L 152.180878 159.030579 
z
" clip-path="url(#p8f1464b2a4)" style="fill: #ff8c00"/>
   </g>
   <g id="patch_46">
    <path d="M 153.881505 256.32 
L 155.242006 256.32 
L 155.242006 155.50021 
L 153.881505 155.50021 
z
" clip-path="url(#p8f1464b2a4)" style="fill: #ff8c00"/>
   </g>
   <g id="patch_47">
    <path d="M 155.582132 256.32 
L 156.942633 256.32 
L 156.942633 151.46556 
L 155.582132 151.46556 
z
" clip-path="url(#p8f1464b2a4)" style="fill: #ff8c00"/>
   </g>
   <g id="patch_48">
    <path d="M 157.282759 256.32 
L 158.64326 256.32 
L 158.64326 148.953055 
L 157.282759 148.953055 
z
" clip-path="url(#p8f1464b2a4)" style="fill: #ff8c00"/>
   </g>
   <g id="patch_49">
    <path d="M 158.983386 256.32 
L 160.343887 256.32 
L 160.343887 146.357677 
L 158.983386 146.357677 
z
" clip-path="url(#p8f1464b2a4)" style="fill: #ff8c00"/>
   </g>
   <g id="patch_50">
    <path d="M 160.684013 256.32 
L 162.044514 256.32 
L 162.044514 141.989742 
L 160.684013 141.989742 
z
" clip-path="url(#p8f1464b2a4)" style="fill: #ff8c00"/>
   </g>
   <g id="patch_51">
    <path d="M 162.384639 256.32 
L 163.745141 256.32 
L 163.745141 139.695971 
L 162.384639 139.695971 
z
" clip-path="url(#p8f1464b2a4)" style="fill: #ff8c00"/>
   </g>
   <g id="patch_52">
    <path d="M 164.085266 256.32 
L 165.445768 256.32 
L 165.445768 136.672449 
L 164.085266 136.672449 
z
" clip-path="url(#p8f1464b2a4)" style="fill: #ff8c00"/>
   </g>
   <g id="patch_53">
    <path d="M 165.785893 256.32 
L 167.146395 256.32 
L 167.146395 133.423977 
L 165.785893 133.423977 
z
" clip-path="url(#p8f1464b2a4)" style="fill: #ff8c00"/>
   </g>
   <g id="patch_54">
    <path d="M 167.48652 256.32 
L 168.847022 256.32 
L 168.847022 130.444162 
L 167.48652 130.444162 
z
" clip-path="url(#p8f1464b2a4)" style="fill: #ff8c00"/>
   </g>
   <g id="patch_55">
    <path d="M 169.187147 256.32 
L 170.547649 256.32 
L 170.547649 128.356715 
L 169.187147 128.356715 
z
" clip-path="url(#p8f1464b2a4)" style="fill: #ff8c00"/>
   </g>
   <g id="patch_56">
    <path d="M 170.887774 256.32 
L 172.248276 256.32 
L 172.248276 126.196988 
L 170.887774 126.196988 
z
" clip-path="url(#p8f1464b2a4)" style="fill: #ff8c00"/>
   </g>
   <g id="patch_57">
    <path d="M 172.588401 256.32 
L 173.948903 256.32 
L 173.948903 123.029398 
L 172.588401 123.029398 
z
" clip-path="url(#p8f1464b2a4)" style="fill: #ff8c00"/>
   </g>
   <g id="patch_58">
    <path d="M 174.289028 256.32 
L 175.64953 256.32 
L 175.64953 119.811055 
L 174.289028 119.811055 
z
" clip-path="url(#p8f1464b2a4)" style="fill: #ff8c00"/>
   </g>
   <g id="patch_59">
    <path d="M 175.989655 256.32 
L 177.350157 256.32 
L 177.350157 116.791195 
L 175.989655 116.791195 
z
" clip-path="url(#p8f1464b2a4)" style="fill: #ff8c00"/>
   </g>
   <g id="patch_60">
    <path d="M 177.690282 256.32 
L 179.050784 256.32 
L 179.050784 114.944929 
L 177.690282 114.944929 
z
" clip-path="url(#p8f1464b2a4)" style="fill: #ff8c00"/>
   </g>
   <g id="patch_61">
    <path d="M 179.390909 256.32 
L 180.751411 256.32 
L 180.751411 112.044432 
L 179.390909 112.044432 
z
" clip-path="url(#p8f1464b2a4)" style="fill: #ff8c00"/>
   </g>
   <g id="patch_62">
    <path d="M 181.091536 256.32 
L 182.452038 256.32 
L 182.452038 109.819011 
L 181.091536 109.819011 
z
" clip-path="url(#p8f1464b2a4)" style="fill: #ff8c00"/>
   </g>
   <g id="patch_63">
    <path d="M 182.792163 256.32 
L 184.152665 256.32 
L 184.152665 106.9571 
L 182.792163 106.9571 
z
" clip-path="url(#p8f1464b2a4)" style="fill: #ff8c00"/>
   </g>
   <g id="patch_64">
    <path d="M 184.49279 256.32 
L 185.853292 256.32 
L 185.853292 105.336489 
L 184.49279 105.336489 
z
" clip-path="url(#p8f1464b2a4)" style="fill: #ff8c00"/>
   </g>
   <g id="patch_65">
    <path d="M 186.193417 256.32 
L 187.553918 256.32 
L 187.553918 102.786403 
L 186.193417 102.786403 
z
" clip-path="url(#p8f1464b2a4)" style="fill: #ff8c00"/>
   </g>
   <g id="patch_66">
    <path d="M 187.894044 256.32 
L 189.254545 256.32 
L 189.254545 100.988622 
L 187.894044 100.988622 
z
" clip-path="url(#p8f1464b2a4)" style="fill: #ff8c00"/>
   </g>
   <g id="patch_67">
    <path d="M 189.594671 256.32 
L 190.955172 256.32 
L 190.955172 99.389803 
L 189.594671 99.389803 
z
" clip-path="url(#p8f1464b2a4)" style="fill: #ff8c00"/>
   </g>
   <g id="patch_68">
    <path d="M 191.295298 256.32 
L 192.655799 256.32 
L 192.655799 97.119504 
L 191.295298 97.119504 
z
" clip-path="url(#p8f1464b2a4)" style="fill: #ff8c00"/>
   </g>
   <g id="patch_69">
    <path d="M 192.995925 256.32 
L 194.356426 256.32 
L 194.356426 94.611711 
L 192.995925 94.611711 
z
" clip-path="url(#p8f1464b2a4)" style="fill: #ff8c00"/>
   </g>
   <g id="patch_70">
    <path d="M 194.696552 256.32 
L 196.057053 256.32 
L 196.057053 93.27023 
L 194.696552 93.27023 
z
" clip-path="url(#p8f1464b2a4)" style="fill: #ff8c00"/>
   </g>
   <g id="patch_71">
    <path d="M 196.397179 256.32 
L 197.75768 256.32 
L 197.75768 91.181294 
L 196.397179 91.181294 
z
" clip-path="url(#p8f1464b2a4)" style="fill: #ff8c00"/>
   </g>
   <g id="patch_72">
    <path d="M 198.097806 256.32 
L 199.458307 256.32 
L 199.458307 89.986252 
L 198.097806 89.986252 
z
" clip-path="url(#p8f1464b2a4)" style="fill: #ff8c00"/>
   </g>
   <g id="patch_73">
    <path d="M 199.798433 256.32 
L 201.158934 256.32 
L 201.158934 87.843208 
L 199.798433 87.843208 
z
" clip-path="url(#p8f1464b2a4)" style="fill: #ff8c00"/>
   </g>
   <g id="patch_74">
    <path d="M 201.49906 256.32 
L 202.859561 256.32 
L 202.859561 86.691041 
L 201.49906 86.691041 
z
" clip-path="url(#p8f1464b2a4)" style="fill: #ff8c00"/>
   </g>
   <g id="patch_75">
    <path d="M 203.199687 256.32 
L 204.560188 256.32 
L 204.560188 84.993824 
L 203.199687 84.993824 
z
" clip-path="url(#p8f1464b2a4)" style="fill: #ff8c00"/>
   </g>
   <g id="patch_76">
    <path d="M 204.900313 256.32 
L 206.260815 256.32 
L 206.260815 82.656801 
L 204.900313 82.656801 
z
" clip-path="url(#p8f1464b2a4)" style="fill: #ff8c00"/>
   </g>
   <g id="patch_77">
    <path d="M 206.60094 256.32 
L 207.961442 256.32 
L 207.961442 81.706486 
L 206.60094 81.706486 
z
" clip-path="url(#p8f1464b2a4)" style="fill: #ff8c00"/>
   </g>
   <g id="patch_78">
    <path d="M 208.301567 256.32 
L 209.662069 256.32 
L 209.662069 80.49067 
L 208.301567 80.49067 
z
" clip-path="url(#p8f1464b2a4)" style="fill: #ff8c00"/>
   </g>
   <g id="patch_79">
    <path d="M 210.002194 256.32 
L 211.362696 256.32 
L 211.362696 78.855815 
L 210.002194 78.855815 
z
" clip-path="url(#p8f1464b2a4)" style="fill: #ff8c00"/>
   </g>
   <g id="patch_80">
    <path d="M 211.702821 256.32 
L 213.063323 256.32 
L 213.063323 77.786081 
L 211.702821 77.786081 
z
" clip-path="url(#p8f1464b2a4)" style="fill: #ff8c00"/>
   </g>
   <g id="patch_81">
    <path d="M 213.403448 256.32 
L 214.76395 256.32 
L 214.76395 75.645619 
L 213.403448 75.645619 
z
" clip-path="url(#p8f1464b2a4)" style="fill: #ff8c00"/>
   </g>
   <g id="patch_82">
    <path d="M 215.104075 256.32 
L 216.464577 256.32 
L 216.464577 75.553747 
L 215.104075 75.553747 
z
" clip-path="url(#p8f1464b2a4)" style="fill: #ff8c00"/>
   </g>
   <g id="patch_83">
    <path d="M 216.804702 256.32 
L 218.165204 256.32 
L 218.165204 74.376519 
L 216.804702 74.376519 
z
" clip-path="url(#p8f1464b2a4)" style="fill: #ff8c00"/>
   </g>
   <g id="patch_84">
    <path d="M 218.505329 256.32 
L 219.865831 256.32 
L 219.865831 72.905056 
L 218.505329 72.905056 
z
" clip-path="url(#p8f1464b2a4)" style="fill: #ff8c00"/>
   </g>
   <g id="patch_85">
    <path d="M 220.205956 256.32 
L 221.566458 256.32 
L 221.566458 71.552436 
L 220.205956 71.552436 
z
" clip-path="url(#p8f1464b2a4)" style="fill: #ff8c00"/>
   </g>
   <g id="patch_86">
    <path d="M 221.906583 256.32 
L 223.267085 256.32 
L 223.267085 71.135707 
L 221.906583 71.135707 
z
" clip-path="url(#p8f1464b2a4)" style="fill: #ff8c00"/>
   </g>
   <g id="patch_87">
    <path d="M 223.60721 256.32 
L 224.967712 256.32 
L 224.967712 69.387814 
L 223.60721 69.387814 
z
" clip-path="url(#p8f1464b2a4)" style="fill: #ff8c00"/>
   </g>
   <g id="patch_88">
    <path d="M 225.307837 256.32 
L 226.668339 256.32 
L 226.668339 68.161571 
L 225.307837 68.161571 
z
" clip-path="url(#p8f1464b2a4)" style="fill: #ff8c00"/>
   </g>
   <g id="patch_89">
    <path d="M 227.008464 256.32 
L 228.368966 256.32 
L 228.368966 68.396639 
L 227.008464 68.396639 
z
" clip-path="url(#p8f1464b2a4)" style="fill: #ff8c00"/>
   </g>
   <g id="patch_90">
    <path d="M 228.709091 256.32 
L 230.069592 256.32 
L 230.069592 66.565889 
L 228.709091 66.565889 
z
" clip-path="url(#p8f1464b2a4)" style="fill: #ff8c00"/>
   </g>
   <g id="patch_91">
    <path d="M 230.409718 256.32 
L 231.770219 256.32 
L 231.770219 66.184492 
L 230.409718 66.184492 
z
" clip-path="url(#p8f1464b2a4)" style="fill: #ff8c00"/>
   </g>
   <g id="patch_92">
    <path d="M 232.110345 256.32 
L 233.470846 256.32 
L 233.470846 65.362216 
L 232.110345 65.362216 
z
" clip-path="url(#p8f1464b2a4)" style="fill: #ff8c00"/>
   </g>
   <g id="patch_93">
    <path d="M 233.810972 256.32 
L 235.171473 256.32 
L 235.171473 65.186284 
L 233.810972 65.186284 
z
" clip-path="url(#p8f1464b2a4)" style="fill: #ff8c00"/>
   </g>
   <g id="patch_94">
    <path d="M 235.511599 256.32 
L 236.8721 256.32 
L 236.8721 64.156378 
L 235.511599 64.156378 
z
" clip-path="url(#p8f1464b2a4)" style="fill: #ff8c00"/>
   </g>
   <g id="patch_95">
    <path d="M 237.212226 256.32 
L 238.572727 256.32 
L 238.572727 62.797117 
L 237.212226 62.797117 
z
" clip-path="url(#p8f1464b2a4)" style="fill: #ff8c00"/>
   </g>
   <g id="patch_96">
    <path d="M 238.912853 256.32 
L 240.273354 256.32 
L 240.273354 61.90144 
L 238.912853 61.90144 
z
" clip-path="url(#p8f1464b2a4)" style="fill: #ff8c00"/>
   </g>
   <g id="patch_97">
    <path d="M 240.61348 256.32 
L 241.973981 256.32 
L 241.973981 61.72885 
L 240.61348 61.72885 
z
" clip-path="url(#p8f1464b2a4)" style="fill: #ff8c00"/>
   </g>
   <g id="patch_98">
    <path d="M 242.314107 256.32 
L 243.674608 256.32 
L 243.674608 61.201243 
L 242.314107 61.201243 
z
" clip-path="url(#p8f1464b2a4)" style="fill: #ff8c00"/>
   </g>
   <g id="patch_99">
    <path d="M 244.014734 256.32 
L 245.375235 256.32 
L 245.375235 60.615145 
L 244.014734 60.615145 
z
" clip-path="url(#p8f1464b2a4)" style="fill: #ff8c00"/>
   </g>
   <g id="patch_100">
    <path d="M 245.715361 256.32 
L 247.075862 256.32 
L 247.075862 59.560939 
L 245.715361 59.560939 
z
" clip-path="url(#p8f1464b2a4)" style="fill: #ff8c00"/>
   </g>
   <g id="patch_101">
    <path d="M 247.415987 256.32 
L 248.776489 256.32 
L 248.776489 58.887817 
L 247.415987 58.887817 
z
" clip-path="url(#p8f1464b2a4)" style="fill: #ff8c00"/>
   </g>
   <g id="patch_102">
    <path d="M 249.116614 256.32 
L 250.477116 256.32 
L 250.477116 58.46031 
L 249.116614 58.46031 
z
" clip-path="url(#p8f1464b2a4)" style="fill: #ff8c00"/>
   </g>
   <g id="patch_103">
    <path d="M 250.817241 256.32 
L 252.177743 256.32 
L 252.177743 58.130779 
L 250.817241 58.130779 
z
" clip-path="url(#p8f1464b2a4)" style="fill: #ff8c00"/>
   </g>
   <g id="patch_104">
    <path d="M 252.517868 256.32 
L 253.87837 256.32 
L 253.87837 57.71179 
L 252.517868 57.71179 
z
" clip-path="url(#p8f1464b2a4)" style="fill: #ff8c00"/>
   </g>
   <g id="patch_105">
    <path d="M 254.218495 256.32 
L 255.578997 256.32 
L 255.578997 56.879408 
L 254.218495 56.879408 
z
" clip-path="url(#p8f1464b2a4)" style="fill: #ff8c00"/>
   </g>
   <g id="patch_106">
    <path d="M 255.919122 256.32 
L 257.279624 256.32 
L 257.279624 56.433357 
L 255.919122 56.433357 
z
" clip-path="url(#p8f1464b2a4)" style="fill: #ff8c00"/>
   </g>
   <g id="patch_107">
    <path d="M 257.619749 256.32 
L 258.980251 256.32 
L 258.980251 56.00582 
L 257.619749 56.00582 
z
" clip-path="url(#p8f1464b2a4)" style="fill: #ff8c00"/>
   </g>
   <g id="patch_108">
    <path d="M 259.320376 256.32 
L 260.680878 256.32 
L 260.680878 55.994382 
L 259.320376 55.994382 
z
" clip-path="url(#p8f1464b2a4)" style="fill: #ff8c00"/>
   </g>
   <g id="patch_109">
    <path d="M 261.021003 256.32 
L 262.381505 256.32 
L 262.381505 55.284072 
L 261.021003 55.284072 
z
" clip-path="url(#p8f1464b2a4)" style="fill: #ff8c00"/>
   </g>
   <g id="patch_110">
    <path d="M 262.72163 256.32 
L 264.082132 256.32 
L 264.082132 55.140742 
L 262.72163 55.140742 
z
" clip-path="url(#p8f1464b2a4)" style="fill: #ff8c00"/>
   </g>
   <g id="patch_111">
    <path d="M 264.422257 256.32 
L 265.782759 256.32 
L 265.782759 54.477595 
L 264.422257 54.477595 
z
" clip-path="url(#p8f1464b2a4)" style="fill: #ff8c00"/>
   </g>
   <g id="patch_112">
    <path d="M 266.122884 256.32 
L 267.483386 256.32 
L 267.483386 54.155034 
L 266.122884 54.155034 
z
" clip-path="url(#p8f1464b2a4)" style="fill: #ff8c00"/>
   </g>
   <g id="patch_113">
    <path d="M 267.823511 256.32 
L 269.184013 256.32 
L 269.184013 53.888767 
L 267.823511 53.888767 
z
" clip-path="url(#p8f1464b2a4)" style="fill: #ff8c00"/>
   </g>
   <g id="patch_114">
    <path d="M 269.524138 256.32 
L 270.884639 256.32 
L 270.884639 53.501604 
L 269.524138 53.501604 
z
" clip-path="url(#p8f1464b2a4)" style="fill: #ff8c00"/>
   </g>
   <g id="patch_115">
    <path d="M 271.224765 256.32 
L 272.585266 256.32 
L 272.585266 52.799166 
L 271.224765 52.799166 
z
" clip-path="url(#p8f1464b2a4)" style="fill: #ff8c00"/>
   </g>
   <g id="patch_116">
    <path d="M 272.925392 256.32 
L 274.285893 256.32 
L 274.285893 53.073446 
L 272.925392 53.073446 
z
" clip-path="url(#p8f1464b2a4)" style="fill: #ff8c00"/>
   </g>
   <g id="patch_117">
    <path d="M 274.626019 256.32 
L 275.98652 256.32 
L 275.98652 52.422802 
L 274.626019 52.422802 
z
" clip-path="url(#p8f1464b2a4)" style="fill: #ff8c00"/>
   </g>
   <g id="patch_118">
    <path d="M 276.326646 256.32 
L 277.687147 256.32 
L 277.687147 52.225165 
L 276.326646 52.225165 
z
" clip-path="url(#p8f1464b2a4)" style="fill: #ff8c00"/>
   </g>
   <g id="patch_119">
    <path d="M 278.027273 256.32 
L 279.387774 256.32 
L 279.387774 51.895537 
L 278.027273 51.895537 
z
" clip-path="url(#p8f1464b2a4)" style="fill: #ff8c00"/>
   </g>
   <g id="patch_120">
    <path d="M 279.7279 256.32 
L 281.088401 256.32 
L 281.088401 51.5161 
L 279.7279 51.5161 
z
" clip-path="url(#p8f1464b2a4)" style="fill: #ff8c00"/>
   </g>
   <g id="patch_121">
    <path d="M 281.428527 256.32 
L 282.789028 256.32 
L 282.789028 51.263311 
L 281.428527 51.263311 
z
" clip-path="url(#p8f1464b2a4)" style="fill: #ff8c00"/>
   </g>
   <g id="patch_122">
    <path d="M 283.129154 256.32 
L 284.489655 256.32 
L 284.489655 51.170316 
L 283.129154 51.170316 
z
" clip-path="url(#p8f1464b2a4)" style="fill: #ff8c00"/>
   </g>
   <g id="patch_123">
    <path d="M 284.829781 256.32 
L 286.190282 256.32 
L 286.190282 50.913096 
L 284.829781 50.913096 
z
" clip-path="url(#p8f1464b2a4)" style="fill: #ff8c00"/>
   </g>
   <g id="patch_124">
    <path d="M 286.530408 256.32 
L 287.890909 256.32 
L 287.890909 50.49391 
L 286.530408 50.49391 
z
" clip-path="url(#p8f1464b2a4)" style="fill: #ff8c00"/>
   </g>
   <g id="patch_125">
    <path d="M 288.231034 256.32 
L 289.591536 256.32 
L 289.591536 50.412477 
L 288.231034 50.412477 
z
" clip-path="url(#p8f1464b2a4)" style="fill: #ff8c00"/>
   </g>
   <g id="patch_126">
    <path d="M 289.931661 256.32 
L 291.292163 256.32 
L 291.292163 50.118715 
L 289.931661 50.118715 
z
" clip-path="url(#p8f1464b2a4)" style="fill: #ff8c00"/>
   </g>
   <g id="patch_127">
    <path d="M 291.632288 256.32 
L 292.99279 256.32 
L 292.99279 50.070861 
L 291.632288 50.070861 
z
" clip-path="url(#p8f1464b2a4)" style="fill: #ff8c00"/>
   </g>
   <g id="patch_128">
    <path d="M 293.332915 256.32 
L 294.693417 256.32 
L 294.693417 49.990358 
L 293.332915 49.990358 
z
" clip-path="url(#p8f1464b2a4)" style="fill: #ff8c00"/>
   </g>
   <g id="patch_129">
    <path d="M 295.033542 256.32 
L 296.394044 256.32 
L 296.394044 49.49011 
L 295.033542 49.49011 
z
" clip-path="url(#p8f1464b2a4)" style="fill: #ff8c00"/>
   </g>
   <g id="patch_130">
    <path d="M 296.734169 256.32 
L 298.094671 256.32 
L 298.094671 49.531493 
L 296.734169 49.531493 
z
" clip-path="url(#p8f1464b2a4)" style="fill: #ff8c00"/>
   </g>
   <g id="patch_131">
    <path d="M 298.434796 256.32 
L 299.795298 256.32 
L 299.795298 49.129324 
L 298.434796 49.129324 
z
" clip-path="url(#p8f1464b2a4)" style="fill: #ff8c00"/>
   </g>
   <g id="patch_132">
    <path d="M 300.135423 256.32 
L 301.495925 256.32 
L 301.495925 49.198769 
L 300.135423 49.198769 
z
" clip-path="url(#p8f1464b2a4)" style="fill: #ff8c00"/>
   </g>
   <g id="patch_133">
    <path d="M 301.83605 256.32 
L 303.196552 256.32 
L 303.196552 48.872687 
L 301.83605 48.872687 
z
" clip-path="url(#p8f1464b2a4)" style="fill: #ff8c00"/>
   </g>
   <g id="patch_134">
    <path d="M 303.536677 256.32 
L 304.897179 256.32 
L 304.897179 48.736981 
L 303.536677 48.736981 
z
" clip-path="url(#p8f1464b2a4)" style="fill: #ff8c00"/>
   </g>
   <g id="patch_135">
    <path d="M 305.237304 256.32 
L 306.597806 256.32 
L 306.597806 48.946548 
L 305.237304 48.946548 
z
" clip-path="url(#p8f1464b2a4)" style="fill: #ff8c00"/>
   </g>
   <g id="patch_136">
    <path d="M 306.937931 256.32 
L 308.298433 256.32 
L 308.298433 48.498075 
L 306.937931 48.498075 
z
" clip-path="url(#p8f1464b2a4)" style="fill: #ff8c00"/>
   </g>
   <g id="patch_137">
    <path d="M 308.638558 256.32 
L 309.99906 256.32 
L 309.99906 48.448385 
L 308.638558 48.448385 
z
" clip-path="url(#p8f1464b2a4)" style="fill: #ff8c00"/>
   </g>
   <g id="patch_138">
    <path d="M 310.339185 256.32 
L 311.699687 256.32 
L 311.699687 48.184881 
L 310.339185 48.184881 
z
" clip-path="url(#p8f1464b2a4)" style="fill: #ff8c00"/>
   </g>
   <g id="patch_139">
    <path d="M 312.039812 256.32 
L 313.400313 256.32 
L 313.400313 48.590951 
L 312.039812 48.590951 
z
" clip-path="url(#p8f1464b2a4)" style="fill: #ff8c00"/>
   </g>
   <g id="patch_140">
    <path d="M 313.740439 256.32 
L 315.10094 256.32 
L 315.10094 47.992084 
L 313.740439 47.992084 
z
" clip-path="url(#p8f1464b2a4)" style="fill: #ff8c00"/>
   </g>
   <g id="patch_141">
    <path d="M 315.441066 256.32 
L 316.801567 256.32 
L 316.801567 48.149293 
L 315.441066 48.149293 
z
" clip-path="url(#p8f1464b2a4)" style="fill: #ff8c00"/>
   </g>
   <g id="patch_142">
    <path d="M 317.141693 256.32 
L 318.502194 256.32 
L 318.502194 47.996877 
L 317.141693 47.996877 
z
" clip-path="url(#p8f1464b2a4)" style="fill: #ff8c00"/>
   </g>
   <g id="patch_143">
    <path d="M 318.84232 256.32 
L 320.202821 256.32 
L 320.202821 47.774662 
L 318.84232 47.774662 
z
" clip-path="url(#p8f1464b2a4)" style="fill: #ff8c00"/>
   </g>
   <g id="patch_144">
    <path d="M 320.542947 256.32 
L 321.903448 256.32 
L 321.903448 47.905548 
L 320.542947 47.905548 
z
" clip-path="url(#p8f1464b2a4)" style="fill: #ff8c00"/>
   </g>
   <g id="patch_145">
    <path d="M 322.243574 256.32 
L 323.604075 256.32 
L 323.604075 47.417107 
L 322.243574 47.417107 
z
" clip-path="url(#p8f1464b2a4)" style="fill: #ff8c00"/>
   </g>
   <g id="patch_146">
    <path d="M 323.944201 256.32 
L 325.304702 256.32 
L 325.304702 47.365233 
L 323.944201 47.365233 
z
" clip-path="url(#p8f1464b2a4)" style="fill: #ff8c00"/>
   </g>
   <g id="patch_147">
    <path d="M 325.644828 256.32 
L 327.005329 256.32 
L 327.005329 47.312138 
L 325.644828 47.312138 
z
" clip-path="url(#p8f1464b2a4)" style="fill: #ff8c00"/>
   </g>
   <g id="patch_148">
    <path d="M 327.345455 256.32 
L 328.705956 256.32 
L 328.705956 47.36655 
L 327.345455 47.36655 
z
" clip-path="url(#p8f1464b2a4)" style="fill: #ff8c00"/>
   </g>
   <g id="patch_149">
    <path d="M 329.046082 256.32 
L 330.406583 256.32 
L 330.406583 47.105334 
L 329.046082 47.105334 
z
" clip-path="url(#p8f1464b2a4)" style="fill: #ff8c00"/>
   </g>
   <g id="patch_150">
    <path d="M 330.746708 256.32 
L 332.10721 256.32 
L 332.10721 47.486834 
L 330.746708 47.486834 
z
" clip-path="url(#p8f1464b2a4)" style="fill: #ff8c00"/>
   </g>
   <g id="patch_151">
    <path d="M 332.447335 256.32 
L 333.807837 256.32 
L 333.807837 47.264888 
L 332.447335 47.264888 
z
" clip-path="url(#p8f1464b2a4)" style="fill: #ff8c00"/>
   </g>
   <g id="patch_152">
    <path d="M 334.147962 256.32 
L 335.508464 256.32 
L 335.508464 47.227016 
L 334.147962 47.227016 
z
" clip-path="url(#p8f1464b2a4)" style="fill: #ff8c00"/>
   </g>
   <g id="patch_153">
    <path d="M 335.848589 256.32 
L 337.209091 256.32 
L 337.209091 46.976661 
L 335.848589 46.976661 
z
" clip-path="url(#p8f1464b2a4)" style="fill: #ff8c00"/>
   </g>
   <g id="patch_154">
    <path d="M 337.549216 256.32 
L 338.909718 256.32 
L 338.909718 46.847767 
L 337.549216 46.847767 
z
" clip-path="url(#p8f1464b2a4)" style="fill: #ff8c00"/>
   </g>
   <g id="patch_155">
    <path d="M 339.249843 256.32 
L 340.610345 256.32 
L 340.610345 46.893488 
L 339.249843 46.893488 
z
" clip-path="url(#p8f1464b2a4)" style="fill: #ff8c00"/>
   </g>
   <g id="patch_156">
    <path d="M 340.95047 256.32 
L 342.310972 256.32 
L 342.310972 46.958392 
L 340.95047 46.958392 
z
" clip-path="url(#p8f1464b2a4)" style="fill: #ff8c00"/>
   </g>
   <g id="patch_157">
    <path d="M 342.651097 256.32 
L 344.011599 256.32 
L 344.011599 46.834226 
L 342.651097 46.834226 
z
" clip-path="url(#p8f1464b2a4)" style="fill: #ff8c00"/>
   </g>
   <g id="patch_158">
    <path d="M 344.351724 256.32 
L 345.712226 256.32 
L 345.712226 46.645929 
L 344.351724 46.645929 
z
" clip-path="url(#p8f1464b2a4)" style="fill: #ff8c00"/>
   </g>
   <g id="patch_159">
    <path d="M 346.052351 256.32 
L 347.412853 256.32 
L 347.412853 46.763166 
L 346.052351 46.763166 
z
" clip-path="url(#p8f1464b2a4)" style="fill: #ff8c00"/>
   </g>
   <g id="patch_160">
    <path d="M 347.752978 256.32 
L 349.11348 256.32 
L 349.11348 46.996453 
L 347.752978 46.996453 
z
" clip-path="url(#p8f1464b2a4)" style="fill: #ff8c00"/>
   </g>
   <g id="patch_161">
    <path d="M 349.453605 256.32 
L 350.814107 256.32 
L 350.814107 46.657425 
L 349.453605 46.657425 
z
" clip-path="url(#p8f1464b2a4)" style="fill: #ff8c00"/>
   </g>
   <g id="patch_162">
    <path d="M 351.154232 256.32 
L 352.514734 256.32 
L 352.514734 46.757112 
L 351.154232 46.757112 
z
" clip-path="url(#p8f1464b2a4)" style="fill: #ff8c00"/>
   </g>
   <g id="patch_163">
    <path d="M 352.854859 256.32 
L 354.215361 256.32 
L 354.215361 46.459496 
L 352.854859 46.459496 
z
" clip-path="url(#p8f1464b2a4)" style="fill: #ff8c00"/>
   </g>
   <g id="patch_164">
    <path d="M 354.555486 256.32 
L 355.915987 256.32 
L 355.915987 46.54131 
L 354.555486 46.54131 
z
" clip-path="url(#p8f1464b2a4)" style="fill: #ff8c00"/>
   </g>
   <g id="patch_165">
    <path d="M 356.256113 256.32 
L 357.616614 256.32 
L 357.616614 46.299421 
L 356.256113 46.299421 
z
" clip-path="url(#p8f1464b2a4)" style="fill: #ff8c00"/>
   </g>
   <g id="patch_166">
    <path d="M 357.95674 256.32 
L 359.317241 256.32 
L 359.317241 46.526344 
L 357.95674 46.526344 
z
" clip-path="url(#p8f1464b2a4)" style="fill: #ff8c00"/>
   </g>
   <g id="patch_167">
    <path d="M 359.657367 256.32 
L 361.017868 256.32 
L 361.017868 46.362782 
L 359.657367 46.362782 
z
" clip-path="url(#p8f1464b2a4)" style="fill: #ff8c00"/>
   </g>
   <g id="patch_168">
    <path d="M 361.357994 256.32 
L 362.718495 256.32 
L 362.718495 46.396323 
L 361.357994 46.396323 
z
" clip-path="url(#p8f1464b2a4)" style="fill: #ff8c00"/>
   </g>
   <g id="patch_169">
    <path d="M 363.058621 256.32 
L 364.419122 256.32 
L 364.419122 46.39776 
L 363.058621 46.39776 
z
" clip-path="url(#p8f1464b2a4)" style="fill: #ff8c00"/>
   </g>
   <g id="patch_170">
    <path d="M 364.759248 256.32 
L 366.119749 256.32 
L 366.119749 46.201664 
L 364.759248 46.201664 
z
" clip-path="url(#p8f1464b2a4)" style="fill: #ff8c00"/>
   </g>
   <g id="patch_171">
    <path d="M 366.459875 256.32 
L 367.820376 256.32 
L 367.820376 46.089234 
L 366.459875 46.089234 
z
" clip-path="url(#p8f1464b2a4)" style="fill: #ff8c00"/>
   </g>
   <g id="patch_172">
    <path d="M 368.160502 256.32 
L 369.521003 256.32 
L 369.521003 46.45491 
L 368.160502 46.45491 
z
" clip-path="url(#p8f1464b2a4)" style="fill: #ff8c00"/>
   </g>
   <g id="patch_173">
    <path d="M 369.861129 256.32 
L 371.22163 256.32 
L 371.22163 46.224053 
L 369.861129 46.224053 
z
" clip-path="url(#p8f1464b2a4)" style="fill: #ff8c00"/>
   </g>
   <g id="patch_174">
    <path d="M 371.561755 256.32 
L 372.922257 256.32 
L 372.922257 46.193634 
L 371.561755 46.193634 
z
" clip-path="url(#p8f1464b2a4)" style="fill: #ff8c00"/>
   </g>
   <g id="patch_175">
    <path d="M 373.262382 256.32 
L 374.622884 256.32 
L 374.622884 46.188307 
L 373.262382 46.188307 
z
" clip-path="url(#p8f1464b2a4)" style="fill: #ff8c00"/>
   </g>
   <g id="patch_176">
    <path d="M 374.963009 256.32 
L 376.323511 256.32 
L 376.323511 46.161839 
L 374.963009 46.161839 
z
" clip-path="url(#p8f1464b2a4)" style="fill: #ff8c00"/>
   </g>
   <g id="patch_177">
    <path d="M 376.663636 256.32 
L 378.024138 256.32 
L 378.024138 46.249029 
L 376.663636 46.249029 
z
" clip-path="url(#p8f1464b2a4)" style="fill: #ff8c00"/>
   </g>
   <g id="patch_178">
    <path d="M 378.364263 256.32 
L 379.724765 256.32 
L 379.724765 46.037222 
L 378.364263 46.037222 
z
" clip-path="url(#p8f1464b2a4)" style="fill: #ff8c00"/>
   </g>
   <g id="patch_179">
    <path d="M 380.06489 256.32 
L 381.425392 256.32 
L 381.425392 46.040784 
L 380.06489 46.040784 
z
" clip-path="url(#p8f1464b2a4)" style="fill: #ff8c00"/>
   </g>
   <g id="patch_180">
    <path d="M 381.765517 256.32 
L 383.126019 256.32 
L 383.126019 45.912097 
L 381.765517 45.912097 
z
" clip-path="url(#p8f1464b2a4)" style="fill: #ff8c00"/>
   </g>
   <g id="patch_181">
    <path d="M 383.466144 256.32 
L 384.826646 256.32 
L 384.826646 45.832502 
L 383.466144 45.832502 
z
" clip-path="url(#p8f1464b2a4)" style="fill: #ff8c00"/>
   </g>
   <g id="patch_182">
    <path d="M 385.166771 256.32 
L 386.527273 256.32 
L 386.527273 45.960494 
L 385.166771 45.960494 
z
" clip-path="url(#p8f1464b2a4)" style="fill: #ff8c00"/>
   </g>
   <g id="patch_183">
    <path d="M 386.867398 256.32 
L 388.2279 256.32 
L 388.2279 45.664846 
L 386.867398 45.664846 
z
" clip-path="url(#p8f1464b2a4)" style="fill: #ff8c00"/>
   </g>
   <g id="patch_184">
    <path d="M 388.568025 256.32 
L 389.928527 256.32 
L 389.928527 45.980995 
L 388.568025 45.980995 
z
" clip-path="url(#p8f1464b2a4)" style="fill: #ff8c00"/>
   </g>
   <g id="patch_185">
    <path d="M 390.268652 256.32 
L 391.629154 256.32 
L 391.629154 46.079478 
L 390.268652 46.079478 
z
" clip-path="url(#p8f1464b2a4)" style="fill: #ff8c00"/>
   </g>
   <g id="patch_186">
    <path d="M 391.969279 256.32 
L 393.329781 256.32 
L 393.329781 45.813285 
L 391.969279 45.813285 
z
" clip-path="url(#p8f1464b2a4)" style="fill: #ff8c00"/>
   </g>
   <g id="patch_187">
    <path d="M 393.669906 256.32 
L 395.030408 256.32 
L 395.030408 46.098874 
L 393.669906 46.098874 
z
" clip-path="url(#p8f1464b2a4)" style="fill: #ff8c00"/>
   </g>
   <g id="patch_188">
    <path d="M 395.370533 256.32 
L 396.731034 256.32 
L 396.731034 46.011705 
L 395.370533 46.011705 
z
" clip-path="url(#p8f1464b2a4)" style="fill: #ff8c00"/>
   </g>
   <g id="patch_189">
    <path d="M 397.07116 256.32 
L 398.431661 256.32 
L 398.431661 45.667676 
L 397.07116 45.667676 
z
" clip-path="url(#p8f1464b2a4)" style="fill: #ff8c00"/>
   </g>
   <g id="patch_190">
    <path d="M 398.771787 256.32 
L 400.132288 256.32 
L 400.132288 46.24731 
L 398.771787 46.24731 
z
" clip-path="url(#p8f1464b2a4)" style="fill: #ff8c00"/>
   </g>
   <g id="patch_191">
    <path d="M 400.472414 256.32 
L 401.832915 256.32 
L 401.832915 45.896392 
L 400.472414 45.896392 
z
" clip-path="url(#p8f1464b2a4)" style="fill: #ff8c00"/>
   </g>
   <g id="patch_192">
    <path d="M 402.173041 256.32 
L 403.533542 256.32 
L 403.533542 46.05515 
L 402.173041 46.05515 
z
" clip-path="url(#p8f1464b2a4)" style="fill: #ff8c00"/>
   </g>
   <g id="patch_193">
    <path d="M 403.873668 256.32 
L 405.234169 256.32 
L 405.234169 45.868218 
L 403.873668 45.868218 
z
" clip-path="url(#p8f1464b2a4)" style="fill: #ff8c00"/>
   </g>
   <g id="patch_194">
    <path d="M 405.574295 256.32 
L 406.934796 256.32 
L 406.934796 45.900638 
L 405.574295 45.900638 
z
" clip-path="url(#p8f1464b2a4)" style="fill: #ff8c00"/>
   </g>
   <g id="patch_195">
    <path d="M 407.274922 256.32 
L 408.635423 256.32 
L 408.635423 45.720808 
L 407.274922 45.720808 
z
" clip-path="url(#p8f1464b2a4)" style="fill: #ff8c00"/>
   </g>
   <g id="patch_196">
    <path d="M 408.975549 256.32 
L 410.33605 256.32 
L 410.33605 46.064308 
L 408.975549 46.064308 
z
" clip-path="url(#p8f1464b2a4)" style="fill: #ff8c00"/>
   </g>
   <g id="patch_197">
    <path d="M 410.676176 256.32 
L 412.036677 256.32 
L 412.036677 45.962878 
L 410.676176 45.962878 
z
" clip-path="url(#p8f1464b2a4)" style="fill: #ff8c00"/>
   </g>
   <g id="patch_198">
    <path d="M 412.376803 256.32 
L 413.737304 256.32 
L 413.737304 45.73907 
L 412.376803 45.73907 
z
" clip-path="url(#p8f1464b2a4)" style="fill: #ff8c00"/>
   </g>
   <g id="patch_199">
    <path d="M 414.077429 256.32 
L 415.437931 256.32 
L 415.437931 45.842688 
L 414.077429 45.842688 
z
" clip-path="url(#p8f1464b2a4)" style="fill: #ff8c00"/>
   </g>
   <g id="patch_200">
    <path d="M 415.778056 256.32 
L 417.138558 256.32 
L 417.138558 45.663974 
L 415.778056 45.663974 
z
" clip-path="url(#p8f1464b2a4)" style="fill: #ff8c00"/>
   </g>
   <g id="patch_201">
    <path d="M 417.478683 256.32 
L 418.839185 256.32 
L 418.839185 45.762828 
L 417.478683 45.762828 
z
" clip-path="url(#p8f1464b2a4)" style="fill: #ff8c00"/>
   </g>
   <g id="patch_202">
    <path d="M 419.17931 256.32 
L 420.539812 256.32 
L 420.539812 45.798855 
L 419.17931 45.798855 
z
" clip-path="url(#p8f1464b2a4)" style="fill: #ff8c00"/>
   </g>
   <g id="patch_203">
    <path d="M 420.879937 256.32 
L 422.240439 256.32 
L 422.240439 45.931428 
L 420.879937 45.931428 
z
" clip-path="url(#p8f1464b2a4)" style="fill: #ff8c00"/>
   </g>
   <g id="patch_204">
    <path d="M 422.580564 256.32 
L 423.941066 256.32 
L 423.941066 45.830205 
L 422.580564 45.830205 
z
" clip-path="url(#p8f1464b2a4)" style="fill: #ff8c00"/>
   </g>
   <g id="patch_205">
    <path d="M 424.281191 256.32 
L 425.641693 256.32 
L 425.641693 45.489362 
L 424.281191 45.489362 
z
" clip-path="url(#p8f1464b2a4)" style="fill: #ff8c00"/>
   </g>
   <g id="patch_206">
    <path d="M 425.981818 256.32 
L 427.34232 256.32 
L 427.34232 45.825862 
L 425.981818 45.825862 
z
" clip-path="url(#p8f1464b2a4)" style="fill: #ff8c00"/>
   </g>
   <g id="patch_207">
    <path d="M 427.682445 256.32 
L 429.042947 256.32 
L 429.042947 45.498303 
L 427.682445 45.498303 
z
" clip-path="url(#p8f1464b2a4)" style="fill: #ff8c00"/>
   </g>
   <g id="patch_208">
    <path d="M 429.383072 256.32 
L 430.743574 256.32 
L 430.743574 46.208629 
L 429.383072 46.208629 
z
" clip-path="url(#p8f1464b2a4)" style="fill: #ff8c00"/>
   </g>
   <g id="patch_209">
    <path d="M 431.083699 256.32 
L 432.444201 256.32 
L 432.444201 47.367438 
L 431.083699 47.367438 
z
" clip-path="url(#p8f1464b2a4)" style="fill: #ff8c00"/>
   </g>
   <g id="patch_210">
    <path d="M 432.784326 256.32 
L 434.144828 256.32 
L 434.144828 46.04131 
L 432.784326 46.04131 
z
" clip-path="url(#p8f1464b2a4)" style="fill: #ff8c00"/>
   </g>
   <g id="patch_211">
    <path d="M 434.484953 256.32 
L 435.845455 256.32 
L 435.845455 45.12 
L 434.484953 45.12 
z
" clip-path="url(#p8f1464b2a4)" style="fill: #ff8c00"/>
   </g>
   <g id="matplotlib.axis_1">
    <g id="xtick_1">
     <g id="line2d_1">
      <defs>
       <path id="m2611c60f01" d="M 0 0 
L 0 3.5 
" style="stroke: #000000; stroke-width: 0.8"/>
      </defs>
      <g>
       <use xlink:href="#m2611c60f01" x="115.447335" y="256.32" style="stroke: #000000; stroke-width: 0.8"/>
      </g>
     </g>
     <g id="text_1">
      <!-- 50 -->
      <g transform="translate(109.084835 270.918437)scale(0.1 -0.1)">
       <defs>
        <path id="DejaVuSans-35" d="M 691 4666 
L 3169 4666 
L 3169 4134 
L 1269 4134 
L 1269 2991 
Q 1406 3038 1543 3061 
Q 1681 3084 1819 3084 
Q 2600 3084 3056 2656 
Q 3513 2228 3513 1497 
Q 3513 744 3044 326 
Q 2575 -91 1722 -91 
Q 1428 -91 1123 -41 
Q 819 9 494 109 
L 494 744 
Q 775 591 1075 516 
Q 1375 441 1709 441 
Q 2250 441 2565 725 
Q 2881 1009 2881 1497 
Q 2881 1984 2565 2268 
Q 2250 2553 1709 2553 
Q 1456 2553 1204 2497 
Q 953 2441 691 2322 
L 691 4666 
z
" transform="scale(0.015625)"/>
        <path id="DejaVuSans-30" d="M 2034 4250 
Q 1547 4250 1301 3770 
Q 1056 3291 1056 2328 
Q 1056 1369 1301 889 
Q 1547 409 2034 409 
Q 2525 409 2770 889 
Q 3016 1369 3016 2328 
Q 3016 3291 2770 3770 
Q 2525 4250 2034 4250 
z
M 2034 4750 
Q 2819 4750 3233 4129 
Q 3647 3509 3647 2328 
Q 3647 1150 3233 529 
Q 2819 -91 2034 -91 
Q 1250 -91 836 529 
Q 422 1150 422 2328 
Q 422 3509 836 4129 
Q 1250 4750 2034 4750 
z
" transform="scale(0.015625)"/>
       </defs>
       <use xlink:href="#DejaVuSans-35"/>
       <use xlink:href="#DejaVuSans-30" x="63.623047"/>
      </g>
     </g>
    </g>
    <g id="xtick_2">
     <g id="line2d_2">
      <g>
       <use xlink:href="#m2611c60f01" x="200.478683" y="256.32" style="stroke: #000000; stroke-width: 0.8"/>
      </g>
     </g>
     <g id="text_2">
      <!-- 100 -->
      <g transform="translate(190.934933 270.918437)scale(0.1 -0.1)">
       <defs>
        <path id="DejaVuSans-31" d="M 794 531 
L 1825 531 
L 1825 4091 
L 703 3866 
L 703 4441 
L 1819 4666 
L 2450 4666 
L 2450 531 
L 3481 531 
L 3481 0 
L 794 0 
L 794 531 
z
" transform="scale(0.015625)"/>
       </defs>
       <use xlink:href="#DejaVuSans-31"/>
       <use xlink:href="#DejaVuSans-30" x="63.623047"/>
       <use xlink:href="#DejaVuSans-30" x="127.246094"/>
      </g>
     </g>
    </g>
    <g id="xtick_3">
     <g id="line2d_3">
      <g>
       <use xlink:href="#m2611c60f01" x="285.510031" y="256.32" style="stroke: #000000; stroke-width: 0.8"/>
      </g>
     </g>
     <g id="text_3">
      <!-- 150 -->
      <g transform="translate(275.966281 270.918437)scale(0.1 -0.1)">
       <use xlink:href="#DejaVuSans-31"/>
       <use xlink:href="#DejaVuSans-35" x="63.623047"/>
       <use xlink:href="#DejaVuSans-30" x="127.246094"/>
      </g>
     </g>
    </g>
    <g id="xtick_4">
     <g id="line2d_4">
      <g>
       <use xlink:href="#m2611c60f01" x="370.541379" y="256.32" style="stroke: #000000; stroke-width: 0.8"/>
      </g>
     </g>
     <g id="text_4">
      <!-- 200 -->
      <g transform="translate(360.997629 270.918437)scale(0.1 -0.1)">
       <defs>
        <path id="DejaVuSans-32" d="M 1228 531 
L 3431 531 
L 3431 0 
L 469 0 
L 469 531 
Q 828 903 1448 1529 
Q 2069 2156 2228 2338 
Q 2531 2678 2651 2914 
Q 2772 3150 2772 3378 
Q 2772 3750 2511 3984 
Q 2250 4219 1831 4219 
Q 1534 4219 1204 4116 
Q 875 4013 500 3803 
L 500 4441 
Q 881 4594 1212 4672 
Q 1544 4750 1819 4750 
Q 2544 4750 2975 4387 
Q 3406 4025 3406 3419 
Q 3406 3131 3298 2873 
Q 3191 2616 2906 2266 
Q 2828 2175 2409 1742 
Q 1991 1309 1228 531 
z
" transform="scale(0.015625)"/>
       </defs>
       <use xlink:href="#DejaVuSans-32"/>
       <use xlink:href="#DejaVuSans-30" x="63.623047"/>
       <use xlink:href="#DejaVuSans-30" x="127.246094"/>
      </g>
     </g>
    </g>
    <g id="text_5">
     <!-- # of non-zero elements in matrix -->
     <g transform="translate(175.3625 284.596563)scale(0.1 -0.1)">
      <defs>
       <path id="DejaVuSans-23" d="M 3272 2816 
L 2363 2816 
L 2100 1772 
L 3016 1772 
L 3272 2816 
z
M 2803 4594 
L 2478 3297 
L 3391 3297 
L 3719 4594 
L 4219 4594 
L 3897 3297 
L 4872 3297 
L 4872 2816 
L 3775 2816 
L 3519 1772 
L 4513 1772 
L 4513 1294 
L 3397 1294 
L 3072 0 
L 2572 0 
L 2894 1294 
L 1978 1294 
L 1656 0 
L 1153 0 
L 1478 1294 
L 494 1294 
L 494 1772 
L 1594 1772 
L 1856 2816 
L 850 2816 
L 850 3297 
L 1978 3297 
L 2297 4594 
L 2803 4594 
z
" transform="scale(0.015625)"/>
       <path id="DejaVuSans-20" transform="scale(0.015625)"/>
       <path id="DejaVuSans-6f" d="M 1959 3097 
Q 1497 3097 1228 2736 
Q 959 2375 959 1747 
Q 959 1119 1226 758 
Q 1494 397 1959 397 
Q 2419 397 2687 759 
Q 2956 1122 2956 1747 
Q 2956 2369 2687 2733 
Q 2419 3097 1959 3097 
z
M 1959 3584 
Q 2709 3584 3137 3096 
Q 3566 2609 3566 1747 
Q 3566 888 3137 398 
Q 2709 -91 1959 -91 
Q 1206 -91 779 398 
Q 353 888 353 1747 
Q 353 2609 779 3096 
Q 1206 3584 1959 3584 
z
" transform="scale(0.015625)"/>
       <path id="DejaVuSans-66" d="M 2375 4863 
L 2375 4384 
L 1825 4384 
Q 1516 4384 1395 4259 
Q 1275 4134 1275 3809 
L 1275 3500 
L 2222 3500 
L 2222 3053 
L 1275 3053 
L 1275 0 
L 697 0 
L 697 3053 
L 147 3053 
L 147 3500 
L 697 3500 
L 697 3744 
Q 697 4328 969 4595 
Q 1241 4863 1831 4863 
L 2375 4863 
z
" transform="scale(0.015625)"/>
       <path id="DejaVuSans-6e" d="M 3513 2113 
L 3513 0 
L 2938 0 
L 2938 2094 
Q 2938 2591 2744 2837 
Q 2550 3084 2163 3084 
Q 1697 3084 1428 2787 
Q 1159 2491 1159 1978 
L 1159 0 
L 581 0 
L 581 3500 
L 1159 3500 
L 1159 2956 
Q 1366 3272 1645 3428 
Q 1925 3584 2291 3584 
Q 2894 3584 3203 3211 
Q 3513 2838 3513 2113 
z
" transform="scale(0.015625)"/>
       <path id="DejaVuSans-2d" d="M 313 2009 
L 1997 2009 
L 1997 1497 
L 313 1497 
L 313 2009 
z
" transform="scale(0.015625)"/>
       <path id="DejaVuSans-7a" d="M 353 3500 
L 3084 3500 
L 3084 2975 
L 922 459 
L 3084 459 
L 3084 0 
L 275 0 
L 275 525 
L 2438 3041 
L 353 3041 
L 353 3500 
z
" transform="scale(0.015625)"/>
       <path id="DejaVuSans-65" d="M 3597 1894 
L 3597 1613 
L 953 1613 
Q 991 1019 1311 708 
Q 1631 397 2203 397 
Q 2534 397 2845 478 
Q 3156 559 3463 722 
L 3463 178 
Q 3153 47 2828 -22 
Q 2503 -91 2169 -91 
Q 1331 -91 842 396 
Q 353 884 353 1716 
Q 353 2575 817 3079 
Q 1281 3584 2069 3584 
Q 2775 3584 3186 3129 
Q 3597 2675 3597 1894 
z
M 3022 2063 
Q 3016 2534 2758 2815 
Q 2500 3097 2075 3097 
Q 1594 3097 1305 2825 
Q 1016 2553 972 2059 
L 3022 2063 
z
" transform="scale(0.015625)"/>
       <path id="DejaVuSans-72" d="M 2631 2963 
Q 2534 3019 2420 3045 
Q 2306 3072 2169 3072 
Q 1681 3072 1420 2755 
Q 1159 2438 1159 1844 
L 1159 0 
L 581 0 
L 581 3500 
L 1159 3500 
L 1159 2956 
Q 1341 3275 1631 3429 
Q 1922 3584 2338 3584 
Q 2397 3584 2469 3576 
Q 2541 3569 2628 3553 
L 2631 2963 
z
" transform="scale(0.015625)"/>
       <path id="DejaVuSans-6c" d="M 603 4863 
L 1178 4863 
L 1178 0 
L 603 0 
L 603 4863 
z
" transform="scale(0.015625)"/>
       <path id="DejaVuSans-6d" d="M 3328 2828 
Q 3544 3216 3844 3400 
Q 4144 3584 4550 3584 
Q 5097 3584 5394 3201 
Q 5691 2819 5691 2113 
L 5691 0 
L 5113 0 
L 5113 2094 
Q 5113 2597 4934 2840 
Q 4756 3084 4391 3084 
Q 3944 3084 3684 2787 
Q 3425 2491 3425 1978 
L 3425 0 
L 2847 0 
L 2847 2094 
Q 2847 2600 2669 2842 
Q 2491 3084 2119 3084 
Q 1678 3084 1418 2786 
Q 1159 2488 1159 1978 
L 1159 0 
L 581 0 
L 581 3500 
L 1159 3500 
L 1159 2956 
Q 1356 3278 1631 3431 
Q 1906 3584 2284 3584 
Q 2666 3584 2933 3390 
Q 3200 3197 3328 2828 
z
" transform="scale(0.015625)"/>
       <path id="DejaVuSans-74" d="M 1172 4494 
L 1172 3500 
L 2356 3500 
L 2356 3053 
L 1172 3053 
L 1172 1153 
Q 1172 725 1289 603 
Q 1406 481 1766 481 
L 2356 481 
L 2356 0 
L 1766 0 
Q 1100 0 847 248 
Q 594 497 594 1153 
L 594 3053 
L 172 3053 
L 172 3500 
L 594 3500 
L 594 4494 
L 1172 4494 
z
" transform="scale(0.015625)"/>
       <path id="DejaVuSans-73" d="M 2834 3397 
L 2834 2853 
Q 2591 2978 2328 3040 
Q 2066 3103 1784 3103 
Q 1356 3103 1142 2972 
Q 928 2841 928 2578 
Q 928 2378 1081 2264 
Q 1234 2150 1697 2047 
L 1894 2003 
Q 2506 1872 2764 1633 
Q 3022 1394 3022 966 
Q 3022 478 2636 193 
Q 2250 -91 1575 -91 
Q 1294 -91 989 -36 
Q 684 19 347 128 
L 347 722 
Q 666 556 975 473 
Q 1284 391 1588 391 
Q 1994 391 2212 530 
Q 2431 669 2431 922 
Q 2431 1156 2273 1281 
Q 2116 1406 1581 1522 
L 1381 1569 
Q 847 1681 609 1914 
Q 372 2147 372 2553 
Q 372 3047 722 3315 
Q 1072 3584 1716 3584 
Q 2034 3584 2315 3537 
Q 2597 3491 2834 3397 
z
" transform="scale(0.015625)"/>
       <path id="DejaVuSans-69" d="M 603 3500 
L 1178 3500 
L 1178 0 
L 603 0 
L 603 3500 
z
M 603 4863 
L 1178 4863 
L 1178 4134 
L 603 4134 
L 603 4863 
z
" transform="scale(0.015625)"/>
       <path id="DejaVuSans-61" d="M 2194 1759 
Q 1497 1759 1228 1600 
Q 959 1441 959 1056 
Q 959 750 1161 570 
Q 1363 391 1709 391 
Q 2188 391 2477 730 
Q 2766 1069 2766 1631 
L 2766 1759 
L 2194 1759 
z
M 3341 1997 
L 3341 0 
L 2766 0 
L 2766 531 
Q 2569 213 2275 61 
Q 1981 -91 1556 -91 
Q 1019 -91 701 211 
Q 384 513 384 1019 
Q 384 1609 779 1909 
Q 1175 2209 1959 2209 
L 2766 2209 
L 2766 2266 
Q 2766 2663 2505 2880 
Q 2244 3097 1772 3097 
Q 1472 3097 1187 3025 
Q 903 2953 641 2809 
L 641 3341 
Q 956 3463 1253 3523 
Q 1550 3584 1831 3584 
Q 2591 3584 2966 3190 
Q 3341 2797 3341 1997 
z
" transform="scale(0.015625)"/>
       <path id="DejaVuSans-78" d="M 3513 3500 
L 2247 1797 
L 3578 0 
L 2900 0 
L 1881 1375 
L 863 0 
L 184 0 
L 1544 1831 
L 300 3500 
L 978 3500 
L 1906 2253 
L 2834 3500 
L 3513 3500 
z
" transform="scale(0.015625)"/>
      </defs>
      <use xlink:href="#DejaVuSans-23"/>
      <use xlink:href="#DejaVuSans-20" x="83.789062"/>
      <use xlink:href="#DejaVuSans-6f" x="115.576172"/>
      <use xlink:href="#DejaVuSans-66" x="176.757812"/>
      <use xlink:href="#DejaVuSans-20" x="211.962891"/>
      <use xlink:href="#DejaVuSans-6e" x="243.75"/>
      <use xlink:href="#DejaVuSans-6f" x="307.128906"/>
      <use xlink:href="#DejaVuSans-6e" x="368.310547"/>
      <use xlink:href="#DejaVuSans-2d" x="431.689453"/>
      <use xlink:href="#DejaVuSans-7a" x="467.773438"/>
      <use xlink:href="#DejaVuSans-65" x="520.263672"/>
      <use xlink:href="#DejaVuSans-72" x="581.787109"/>
      <use xlink:href="#DejaVuSans-6f" x="620.650391"/>
      <use xlink:href="#DejaVuSans-20" x="681.832031"/>
      <use xlink:href="#DejaVuSans-65" x="713.619141"/>
      <use xlink:href="#DejaVuSans-6c" x="775.142578"/>
      <use xlink:href="#DejaVuSans-65" x="802.925781"/>
      <use xlink:href="#DejaVuSans-6d" x="864.449219"/>
      <use xlink:href="#DejaVuSans-65" x="961.861328"/>
      <use xlink:href="#DejaVuSans-6e" x="1023.384766"/>
      <use xlink:href="#DejaVuSans-74" x="1086.763672"/>
      <use xlink:href="#DejaVuSans-73" x="1125.972656"/>
      <use xlink:href="#DejaVuSans-20" x="1178.072266"/>
      <use xlink:href="#DejaVuSans-69" x="1209.859375"/>
      <use xlink:href="#DejaVuSans-6e" x="1237.642578"/>
      <use xlink:href="#DejaVuSans-20" x="1301.021484"/>
      <use xlink:href="#DejaVuSans-6d" x="1332.808594"/>
      <use xlink:href="#DejaVuSans-61" x="1430.220703"/>
      <use xlink:href="#DejaVuSans-74" x="1491.5"/>
      <use xlink:href="#DejaVuSans-72" x="1530.708984"/>
      <use xlink:href="#DejaVuSans-69" x="1571.822266"/>
      <use xlink:href="#DejaVuSans-78" x="1599.605469"/>
     </g>
    </g>
   </g>
   <g id="matplotlib.axis_2">
    <g id="ytick_1">
     <g id="line2d_5">
      <defs>
       <path id="m29c93dc8c3" d="M 0 0 
L -3.5 0 
" style="stroke: #000000; stroke-width: 0.8"/>
      </defs>
      <g>
       <use xlink:href="#m29c93dc8c3" x="63" y="256.32" style="stroke: #000000; stroke-width: 0.8"/>
      </g>
     </g>
     <g id="text_6">
      <!-- 0 -->
      <g transform="translate(49.6375 260.119219)scale(0.1 -0.1)">
       <use xlink:href="#DejaVuSans-30"/>
      </g>
     </g>
    </g>
    <g id="ytick_2">
     <g id="line2d_6">
      <g>
       <use xlink:href="#m29c93dc8c3" x="63" y="231.272562" style="stroke: #000000; stroke-width: 0.8"/>
      </g>
     </g>
     <g id="text_7">
      <!-- 50 -->
      <g transform="translate(43.275 235.07178)scale(0.1 -0.1)">
       <use xlink:href="#DejaVuSans-35"/>
       <use xlink:href="#DejaVuSans-30" x="63.623047"/>
      </g>
     </g>
    </g>
    <g id="ytick_3">
     <g id="line2d_7">
      <g>
       <use xlink:href="#m29c93dc8c3" x="63" y="206.225123" style="stroke: #000000; stroke-width: 0.8"/>
      </g>
     </g>
     <g id="text_8">
      <!-- 100 -->
      <g transform="translate(36.9125 210.024342)scale(0.1 -0.1)">
       <use xlink:href="#DejaVuSans-31"/>
       <use xlink:href="#DejaVuSans-30" x="63.623047"/>
       <use xlink:href="#DejaVuSans-30" x="127.246094"/>
      </g>
     </g>
    </g>
    <g id="ytick_4">
     <g id="line2d_8">
      <g>
       <use xlink:href="#m29c93dc8c3" x="63" y="181.177685" style="stroke: #000000; stroke-width: 0.8"/>
      </g>
     </g>
     <g id="text_9">
      <!-- 150 -->
      <g transform="translate(36.9125 184.976904)scale(0.1 -0.1)">
       <use xlink:href="#DejaVuSans-31"/>
       <use xlink:href="#DejaVuSans-35" x="63.623047"/>
       <use xlink:href="#DejaVuSans-30" x="127.246094"/>
      </g>
     </g>
    </g>
    <g id="ytick_5">
     <g id="line2d_9">
      <g>
       <use xlink:href="#m29c93dc8c3" x="63" y="156.130247" style="stroke: #000000; stroke-width: 0.8"/>
      </g>
     </g>
     <g id="text_10">
      <!-- 200 -->
      <g transform="translate(36.9125 159.929465)scale(0.1 -0.1)">
       <use xlink:href="#DejaVuSans-32"/>
       <use xlink:href="#DejaVuSans-30" x="63.623047"/>
       <use xlink:href="#DejaVuSans-30" x="127.246094"/>
      </g>
     </g>
    </g>
    <g id="ytick_6">
     <g id="line2d_10">
      <g>
       <use xlink:href="#m29c93dc8c3" x="63" y="131.082808" style="stroke: #000000; stroke-width: 0.8"/>
      </g>
     </g>
     <g id="text_11">
      <!-- 250 -->
      <g transform="translate(36.9125 134.882027)scale(0.1 -0.1)">
       <use xlink:href="#DejaVuSans-32"/>
       <use xlink:href="#DejaVuSans-35" x="63.623047"/>
       <use xlink:href="#DejaVuSans-30" x="127.246094"/>
      </g>
     </g>
    </g>
    <g id="ytick_7">
     <g id="line2d_11">
      <g>
       <use xlink:href="#m29c93dc8c3" x="63" y="106.03537" style="stroke: #000000; stroke-width: 0.8"/>
      </g>
     </g>
     <g id="text_12">
      <!-- 300 -->
      <g transform="translate(36.9125 109.834589)scale(0.1 -0.1)">
       <defs>
        <path id="DejaVuSans-33" d="M 2597 2516 
Q 3050 2419 3304 2112 
Q 3559 1806 3559 1356 
Q 3559 666 3084 287 
Q 2609 -91 1734 -91 
Q 1441 -91 1130 -33 
Q 819 25 488 141 
L 488 750 
Q 750 597 1062 519 
Q 1375 441 1716 441 
Q 2309 441 2620 675 
Q 2931 909 2931 1356 
Q 2931 1769 2642 2001 
Q 2353 2234 1838 2234 
L 1294 2234 
L 1294 2753 
L 1863 2753 
Q 2328 2753 2575 2939 
Q 2822 3125 2822 3475 
Q 2822 3834 2567 4026 
Q 2313 4219 1838 4219 
Q 1578 4219 1281 4162 
Q 984 4106 628 3988 
L 628 4550 
Q 988 4650 1302 4700 
Q 1616 4750 1894 4750 
Q 2613 4750 3031 4423 
Q 3450 4097 3450 3541 
Q 3450 3153 3228 2886 
Q 3006 2619 2597 2516 
z
" transform="scale(0.015625)"/>
       </defs>
       <use xlink:href="#DejaVuSans-33"/>
       <use xlink:href="#DejaVuSans-30" x="63.623047"/>
       <use xlink:href="#DejaVuSans-30" x="127.246094"/>
      </g>
     </g>
    </g>
    <g id="ytick_8">
     <g id="line2d_12">
      <g>
       <use xlink:href="#m29c93dc8c3" x="63" y="80.987932" style="stroke: #000000; stroke-width: 0.8"/>
      </g>
     </g>
     <g id="text_13">
      <!-- 350 -->
      <g transform="translate(36.9125 84.78715)scale(0.1 -0.1)">
       <use xlink:href="#DejaVuSans-33"/>
       <use xlink:href="#DejaVuSans-35" x="63.623047"/>
       <use xlink:href="#DejaVuSans-30" x="127.246094"/>
      </g>
     </g>
    </g>
    <g id="ytick_9">
     <g id="line2d_13">
      <g>
       <use xlink:href="#m29c93dc8c3" x="63" y="55.940493" style="stroke: #000000; stroke-width: 0.8"/>
      </g>
     </g>
     <g id="text_14">
      <!-- 400 -->
      <g transform="translate(36.9125 59.739712)scale(0.1 -0.1)">
       <defs>
        <path id="DejaVuSans-34" d="M 2419 4116 
L 825 1625 
L 2419 1625 
L 2419 4116 
z
M 2253 4666 
L 3047 4666 
L 3047 1625 
L 3713 1625 
L 3713 1100 
L 3047 1100 
L 3047 0 
L 2419 0 
L 2419 1100 
L 313 1100 
L 313 1709 
L 2253 4666 
z
" transform="scale(0.015625)"/>
       </defs>
       <use xlink:href="#DejaVuSans-34"/>
       <use xlink:href="#DejaVuSans-30" x="63.623047"/>
       <use xlink:href="#DejaVuSans-30" x="127.246094"/>
      </g>
     </g>
    </g>
    <g id="text_15">
     <!-- average of # of non-zero -->
     <g transform="translate(19.635 207.999375)rotate(-90)scale(0.1 -0.1)">
      <defs>
       <path id="DejaVuSans-76" d="M 191 3500 
L 800 3500 
L 1894 563 
L 2988 3500 
L 3597 3500 
L 2284 0 
L 1503 0 
L 191 3500 
z
" transform="scale(0.015625)"/>
       <path id="DejaVuSans-67" d="M 2906 1791 
Q 2906 2416 2648 2759 
Q 2391 3103 1925 3103 
Q 1463 3103 1205 2759 
Q 947 2416 947 1791 
Q 947 1169 1205 825 
Q 1463 481 1925 481 
Q 2391 481 2648 825 
Q 2906 1169 2906 1791 
z
M 3481 434 
Q 3481 -459 3084 -895 
Q 2688 -1331 1869 -1331 
Q 1566 -1331 1297 -1286 
Q 1028 -1241 775 -1147 
L 775 -588 
Q 1028 -725 1275 -790 
Q 1522 -856 1778 -856 
Q 2344 -856 2625 -561 
Q 2906 -266 2906 331 
L 2906 616 
Q 2728 306 2450 153 
Q 2172 0 1784 0 
Q 1141 0 747 490 
Q 353 981 353 1791 
Q 353 2603 747 3093 
Q 1141 3584 1784 3584 
Q 2172 3584 2450 3431 
Q 2728 3278 2906 2969 
L 2906 3500 
L 3481 3500 
L 3481 434 
z
" transform="scale(0.015625)"/>
      </defs>
      <use xlink:href="#DejaVuSans-61"/>
      <use xlink:href="#DejaVuSans-76" x="61.279297"/>
      <use xlink:href="#DejaVuSans-65" x="120.458984"/>
      <use xlink:href="#DejaVuSans-72" x="181.982422"/>
      <use xlink:href="#DejaVuSans-61" x="223.095703"/>
      <use xlink:href="#DejaVuSans-67" x="284.375"/>
      <use xlink:href="#DejaVuSans-65" x="347.851562"/>
      <use xlink:href="#DejaVuSans-20" x="409.375"/>
      <use xlink:href="#DejaVuSans-6f" x="441.162109"/>
      <use xlink:href="#DejaVuSans-66" x="502.34375"/>
      <use xlink:href="#DejaVuSans-20" x="537.548828"/>
      <use xlink:href="#DejaVuSans-23" x="569.335938"/>
      <use xlink:href="#DejaVuSans-20" x="653.125"/>
      <use xlink:href="#DejaVuSans-6f" x="684.912109"/>
      <use xlink:href="#DejaVuSans-66" x="746.09375"/>
      <use xlink:href="#DejaVuSans-20" x="781.298828"/>
      <use xlink:href="#DejaVuSans-6e" x="813.085938"/>
      <use xlink:href="#DejaVuSans-6f" x="876.464844"/>
      <use xlink:href="#DejaVuSans-6e" x="937.646484"/>
      <use xlink:href="#DejaVuSans-2d" x="1001.025391"/>
      <use xlink:href="#DejaVuSans-7a" x="1037.109375"/>
      <use xlink:href="#DejaVuSans-65" x="1089.599609"/>
      <use xlink:href="#DejaVuSans-72" x="1151.123047"/>
      <use xlink:href="#DejaVuSans-6f" x="1189.986328"/>
     </g>
     <!-- elements in inverse -->
     <g transform="translate(30.832812 194.729062)rotate(-90)scale(0.1 -0.1)">
      <use xlink:href="#DejaVuSans-65"/>
      <use xlink:href="#DejaVuSans-6c" x="61.523438"/>
      <use xlink:href="#DejaVuSans-65" x="89.306641"/>
      <use xlink:href="#DejaVuSans-6d" x="150.830078"/>
      <use xlink:href="#DejaVuSans-65" x="248.242188"/>
      <use xlink:href="#DejaVuSans-6e" x="309.765625"/>
      <use xlink:href="#DejaVuSans-74" x="373.144531"/>
      <use xlink:href="#DejaVuSans-73" x="412.353516"/>
      <use xlink:href="#DejaVuSans-20" x="464.453125"/>
      <use xlink:href="#DejaVuSans-69" x="496.240234"/>
      <use xlink:href="#DejaVuSans-6e" x="524.023438"/>
      <use xlink:href="#DejaVuSans-20" x="587.402344"/>
      <use xlink:href="#DejaVuSans-69" x="619.189453"/>
      <use xlink:href="#DejaVuSans-6e" x="646.972656"/>
      <use xlink:href="#DejaVuSans-76" x="710.351562"/>
      <use xlink:href="#DejaVuSans-65" x="769.53125"/>
      <use xlink:href="#DejaVuSans-72" x="831.054688"/>
      <use xlink:href="#DejaVuSans-73" x="872.167969"/>
      <use xlink:href="#DejaVuSans-65" x="924.267578"/>
     </g>
    </g>
   </g>
   <g id="line2d_14">
    <path d="M 81.434796 241.291537 
L 435.165204 137.094194 
L 435.165204 137.094194 
" clip-path="url(#p8f1464b2a4)" style="fill: none; stroke: #0000ff; stroke-width: 1.5; stroke-linecap: square"/>
   </g>
   <g id="patch_212">
    <path d="M 63 256.32 
L 63 34.56 
" style="fill: none; stroke: #000000; stroke-width: 0.8; stroke-linejoin: miter; stroke-linecap: square"/>
   </g>
   <g id="patch_213">
    <path d="M 453.6 256.32 
L 453.6 34.56 
" style="fill: none; stroke: #000000; stroke-width: 0.8; stroke-linejoin: miter; stroke-linecap: square"/>
   </g>
   <g id="patch_214">
    <path d="M 63 256.32 
L 453.6 256.32 
" style="fill: none; stroke: #000000; stroke-width: 0.8; stroke-linejoin: miter; stroke-linecap: square"/>
   </g>
   <g id="patch_215">
    <path d="M 63 34.56 
L 453.6 34.56 
" style="fill: none; stroke: #000000; stroke-width: 0.8; stroke-linejoin: miter; stroke-linecap: square"/>
   </g>
   <g id="legend_1">
    <g id="patch_216">
     <path d="M 70 71.91625 
L 195.079688 71.91625 
Q 197.079688 71.91625 197.079688 69.91625 
L 197.079688 41.56 
Q 197.079688 39.56 195.079688 39.56 
L 70 39.56 
Q 68 39.56 68 41.56 
L 68 69.91625 
Q 68 71.91625 70 71.91625 
z
" style="fill: #ffffff; opacity: 0.8; stroke: #cccccc; stroke-linejoin: miter"/>
    </g>
    <g id="line2d_15">
     <path d="M 72 47.658437 
L 82 47.658437 
L 92 47.658437 
" style="fill: none; stroke: #0000ff; stroke-width: 1.5; stroke-linecap: square"/>
    </g>
    <g id="text_16">
     <!-- y=x -->
     <g transform="translate(100 51.158437)scale(0.1 -0.1)">
      <defs>
       <path id="DejaVuSans-79" d="M 2059 -325 
Q 1816 -950 1584 -1140 
Q 1353 -1331 966 -1331 
L 506 -1331 
L 506 -850 
L 844 -850 
Q 1081 -850 1212 -737 
Q 1344 -625 1503 -206 
L 1606 56 
L 191 3500 
L 800 3500 
L 1894 763 
L 2988 3500 
L 3597 3500 
L 2059 -325 
z
" transform="scale(0.015625)"/>
       <path id="DejaVuSans-3d" d="M 678 2906 
L 4684 2906 
L 4684 2381 
L 678 2381 
L 678 2906 
z
M 678 1631 
L 4684 1631 
L 4684 1100 
L 678 1100 
L 678 1631 
z
" transform="scale(0.015625)"/>
      </defs>
      <use xlink:href="#DejaVuSans-79"/>
      <use xlink:href="#DejaVuSans-3d" x="59.179688"/>
      <use xlink:href="#DejaVuSans-78" x="142.96875"/>
     </g>
    </g>
    <g id="patch_217">
     <path d="M 72 65.836562 
L 92 65.836562 
L 92 58.836562 
L 72 58.836562 
z
" style="fill: #ff8c00"/>
    </g>
    <g id="text_17">
     <!-- matrix size: 30x30 -->
     <g transform="translate(100 65.836562)scale(0.1 -0.1)">
      <defs>
       <path id="DejaVuSans-3a" d="M 750 794 
L 1409 794 
L 1409 0 
L 750 0 
L 750 794 
z
M 750 3309 
L 1409 3309 
L 1409 2516 
L 750 2516 
L 750 3309 
z
" transform="scale(0.015625)"/>
      </defs>
      <use xlink:href="#DejaVuSans-6d"/>
      <use xlink:href="#DejaVuSans-61" x="97.412109"/>
      <use xlink:href="#DejaVuSans-74" x="158.691406"/>
      <use xlink:href="#DejaVuSans-72" x="197.900391"/>
      <use xlink:href="#DejaVuSans-69" x="239.013672"/>
      <use xlink:href="#DejaVuSans-78" x="266.796875"/>
      <use xlink:href="#DejaVuSans-20" x="325.976562"/>
      <use xlink:href="#DejaVuSans-73" x="357.763672"/>
      <use xlink:href="#DejaVuSans-69" x="409.863281"/>
      <use xlink:href="#DejaVuSans-7a" x="437.646484"/>
      <use xlink:href="#DejaVuSans-65" x="490.136719"/>
      <use xlink:href="#DejaVuSans-3a" x="551.660156"/>
      <use xlink:href="#DejaVuSans-20" x="585.351562"/>
      <use xlink:href="#DejaVuSans-33" x="617.138672"/>
      <use xlink:href="#DejaVuSans-30" x="680.761719"/>
      <use xlink:href="#DejaVuSans-78" x="744.384766"/>
      <use xlink:href="#DejaVuSans-33" x="803.564453"/>
      <use xlink:href="#DejaVuSans-30" x="867.1875"/>
     </g>
    </g>
   </g>
  </g>
 </g>
 <defs>
  <clipPath id="p8f1464b2a4">
   <rect x="63" y="34.56" width="390.6" height="221.76"/>
  </clipPath>
 </defs>
</svg>
